<?xml version="1.0" encoding="UTF-8" standalone="no"?>
<!-- Created with Inkscape (http://www.inkscape.org/) -->

<svg
   xmlns:dc="http://purl.org/dc/elements/1.1/"
   xmlns:cc="http://creativecommons.org/ns#"
   xmlns:rdf="http://www.w3.org/1999/02/22-rdf-syntax-ns#"
   xmlns:svg="http://www.w3.org/2000/svg"
   xmlns="http://www.w3.org/2000/svg"
   xmlns:sodipodi="http://sodipodi.sourceforge.net/DTD/sodipodi-0.dtd"
   xmlns:inkscape="http://www.inkscape.org/namespaces/inkscape"
   width="42mm"
   height="42mm"
   viewBox="0 0 42 42"
   version="1.1"
   id="svg8"
   sodipodi:docname="logo.svg"
   inkscape:version="0.92.3 (2405546, 2018-03-11)">
  <defs
     id="defs2" />
  <sodipodi:namedview
     id="base"
     pagecolor="#ffffff"
     bordercolor="#666666"
     borderopacity="1.0"
     inkscape:pageopacity="0.0"
     inkscape:pageshadow="2"
     inkscape:zoom="4"
     inkscape:cx="78.370079"
     inkscape:cy="41.783115"
     inkscape:document-units="mm"
     inkscape:current-layer="layer1"
     showgrid="false"
     inkscape:snap-bbox="true"
     inkscape:bbox-paths="true"
     inkscape:bbox-nodes="true"
     inkscape:snap-bbox-edge-midpoints="true"
     inkscape:snap-bbox-midpoints="true"
     inkscape:snap-intersection-paths="true"
     inkscape:object-paths="true"
     inkscape:snap-midpoints="false"
     inkscape:window-width="3730"
     inkscape:window-height="2058"
     inkscape:window-x="110"
     inkscape:window-y="50"
     inkscape:window-maximized="1"
     inkscape:snap-global="true"
     fit-margin-top="0"
     fit-margin-left="0"
     fit-margin-right="0"
     fit-margin-bottom="0">
    <inkscape:grid
       type="xygrid"
       id="grid4575"
       originx="56.631698"
       originy="-146.46755" />
  </sodipodi:namedview>
  <metadata
     id="metadata5">
    <rdf:RDF>
      <cc:Work
         rdf:about="">
        <dc:format>image/svg+xml</dc:format>
        <dc:type
           rdf:resource="http://purl.org/dc/dcmitype/StillImage" />
        <dc:title></dc:title>
      </cc:Work>
    </rdf:RDF>
  </metadata>
  <g
     inkscape:label="Layer 1"
     inkscape:groupmode="layer"
     id="layer1"
     transform="translate(56.631699,-108.53244)">
    <path
       sodipodi:nodetypes="ccccc"
       inkscape:connector-curvature="0"
       id="path871"
       d="m -50.345642,146.67635 2.749792,4.1e-4 v -15.87541 h -2.75 z"
       style="fill:#ffffff;fill-opacity:1;stroke:none;stroke-width:0.26458332px;stroke-linecap:butt;stroke-linejoin:miter;stroke-opacity:1" />
    <path
       style="fill:#ffffff;fill-opacity:1;stroke:none;stroke-width:0.20624121px;stroke-linecap:butt;stroke-linejoin:miter;stroke-opacity:1"
       d="m -41.708358,146.67676 h 3.789148 l -4.817771,-7 h -3.789436 z"
       id="path875"
       inkscape:connector-curvature="0"
       sodipodi:nodetypes="ccccc" />
    <rect
       style="fill:#000000;fill-opacity:0.94117647;stroke-width:0.27975342"
       id="rect822"
       width="42"
       height="42"
       x="-9.2774706"
       y="110.4475" />
    <path
       style="fill:#ffffff;fill-opacity:1;stroke:none;stroke-width:0.26458332px;stroke-linecap:butt;stroke-linejoin:miter;stroke-opacity:1"
       d="m -50.144889,112.32591 -2.93e-4,15.875 h 2.750626 v -6.61458 h 6.926876 v 6.61458 h 2.749792 v -15.875 h -2.75 l 2.08e-4,6.61459 h -6.926876 l -4.17e-4,-6.61459 z"
       id="path4605"
       inkscape:connector-curvature="0"
       sodipodi:nodetypes="ccccccccccccc" />
    <path
       sodipodi:nodetypes="ccccc"
       inkscape:connector-curvature="0"
       id="path4609"
       d="m -30.29234,128.20091 h 2.749792 v -15.875 h -2.75 z"
       style="fill:#ffffff;fill-opacity:1;stroke:none;stroke-width:0.26458332px;stroke-linecap:butt;stroke-linejoin:miter;stroke-opacity:1" />
    <path
       style="fill:#000000;fill-opacity:1;stroke:none;stroke-width:0.26458332px;stroke-linecap:butt;stroke-linejoin:miter;stroke-opacity:1"
       d="m -35.69482,179.95888 2.749792,4e-4 v -15.8754 h -2.75 z"
       id="path193"
       inkscape:connector-curvature="0"
       sodipodi:nodetypes="ccccc" />
    <path
       id="path195"
       d="m -29.094974,164.08352 -6.600113,5.3e-4 v 2.7497 h 6.600113 a 2.2499999,2.2499999 0 0 1 2.24999,2.24999 2.2499999,2.2499999 0 0 1 -2.24999,2.25 v -5.3e-4 l -6.600113,5.3e-4 v 2.7497 h 6.600113 a 5,5 0 0 0 4.999694,-4.9997 5,5 0 0 0 -4.999694,-5.00021 z"
       style="fill:#000000;fill-opacity:1;stroke:none;stroke-width:0.17059942px;stroke-linecap:butt;stroke-linejoin:miter;stroke-opacity:1"
       inkscape:connector-curvature="0" />
    <path
       sodipodi:nodetypes="ccccc"
       inkscape:connector-curvature="0"
       id="path197"
       d="m -27.057273,179.95928 h 3.789148 l -5.419266,-7 h -3.789435 z"
       style="fill:#000000;fill-opacity:1;stroke:none;stroke-width:0.20624121px;stroke-linecap:butt;stroke-linejoin:miter;stroke-opacity:1" />
    <path
       style="fill:#ffffff;fill-opacity:0.94117647;stroke-width:0.09355481"
       d="m -35.130864,130.80144 v 15.875 h 12.426631 v -15.875 z m 2.749703,2.7497 h 6.927225 v 10.37508 h -6.927225 z"
       id="rect834-3"
       inkscape:connector-curvature="0" />
    <path
       style="fill:#000000;stroke-width:0.12523547"
       d="m -6.8238868,162.83918 a 7.9999999,7.9999999 0 0 0 -8.0000282,8.00003 7.9999999,7.9999999 0 0 0 8.0000282,8.00003 7.9999999,7.9999999 0 0 0 8.000029,-8.00003 7.9999999,7.9999999 0 0 0 -8.000029,-8.00003 z m 0,2.75022 a 5.2500001,5.2500001 0 0 1 5.249809,5.24981 5.2500001,5.2500001 0 0 1 -5.249809,5.24981 5.2500001,5.2500001 0 0 1 -5.2498102,-5.24981 5.2500001,5.2500001 0 0 1 5.2498102,-5.24981 z"
       id="path4573"
       inkscape:connector-curvature="0" />
    <path
       style="fill:#ffffff;fill-opacity:1;stroke:none;stroke-width:0.20998287px;stroke-linecap:butt;stroke-linejoin:miter;stroke-opacity:1"
       d="m -40.669002,140.80044 h 2.749792 v -9.999 h -2.75 z"
       id="path897"
       inkscape:connector-curvature="0"
       sodipodi:nodetypes="ccccc" />
    <path
       sodipodi:nodetypes="ccccc"
       inkscape:connector-curvature="0"
       id="path899"
       d="m -50.345909,130.8012 v 2.74979 h 12.427 v -2.75 z"
       style="fill:#ffffff;fill-opacity:1;stroke:none;stroke-width:0.23409317px;stroke-linecap:butt;stroke-linejoin:miter;stroke-opacity:1" />
    <path
       style="fill:#ffffff;fill-opacity:1;stroke:none;stroke-width:0.23409317px;stroke-linecap:butt;stroke-linejoin:miter;stroke-opacity:1"
       d="m -50.345909,138.05112 v 2.74979 h 12.427 v -2.75 z"
       id="path901"
       inkscape:connector-curvature="0"
       sodipodi:nodetypes="ccccc" />
  </g>
</svg>
