<?xml version="1.0" encoding="UTF-8" standalone="no"?>
<!-- Created with Inkscape (http://www.inkscape.org/) -->

<svg
   xmlns:dc="http://purl.org/dc/elements/1.1/"
   xmlns:cc="http://creativecommons.org/ns#"
   xmlns:rdf="http://www.w3.org/1999/02/22-rdf-syntax-ns#"
   xmlns:svg="http://www.w3.org/2000/svg"
   xmlns="http://www.w3.org/2000/svg"
   xmlns:sodipodi="http://sodipodi.sourceforge.net/DTD/sodipodi-0.dtd"
   xmlns:inkscape="http://www.inkscape.org/namespaces/inkscape"
   width="412"
   height="108"
   viewBox="0 0 109.00833 28.574999"
   version="1.1"
   id="svg8"
   sodipodi:docname="logo3.svg"
   inkscape:version="0.92.3 (2405546, 2018-03-11)">
  <defs
     id="defs2" />
  <sodipodi:namedview
     id="base"
     pagecolor="#ffffff"
     bordercolor="#666666"
     borderopacity="1.0"
     inkscape:pageopacity="0.0"
     inkscape:pageshadow="2"
     inkscape:zoom="2.2920484"
     inkscape:cx="199.18582"
     inkscape:cy="19.223063"
     inkscape:document-units="mm"
     inkscape:current-layer="layer1"
     showgrid="false"
     inkscape:snap-bbox="true"
     inkscape:bbox-paths="true"
     inkscape:bbox-nodes="true"
     inkscape:snap-bbox-edge-midpoints="true"
     inkscape:snap-bbox-midpoints="true"
     inkscape:snap-intersection-paths="true"
     inkscape:object-paths="true"
     inkscape:snap-midpoints="true"
     inkscape:window-width="1720"
     inkscape:window-height="1389"
     inkscape:window-x="3840"
     inkscape:window-y="25"
     inkscape:window-maximized="0"
     inkscape:snap-global="false"
     fit-margin-top="0"
     fit-margin-left="0"
     fit-margin-right="0"
     fit-margin-bottom="0"
     inkscape:snap-smooth-nodes="true"
     inkscape:snap-object-midpoints="true"
     inkscape:snap-center="true"
     units="px">
    <inkscape:grid
       type="xygrid"
       id="grid4575"
       originx="56.631694"
       originy="-146.46753" />
  </sodipodi:namedview>
  <metadata
     id="metadata5">
    <rdf:RDF>
      <cc:Work
         rdf:about="">
        <dc:format>image/svg+xml</dc:format>
        <dc:type
           rdf:resource="http://purl.org/dc/dcmitype/StillImage" />
        <dc:title></dc:title>
      </cc:Work>
    </rdf:RDF>
  </metadata>
  <g
     inkscape:label="Layer 1"
     inkscape:groupmode="layer"
     id="layer1"
     transform="translate(56.631701,-121.95745)">
    <path
       style="fill:#000000;fill-opacity:1;stroke:none;stroke-width:0.26458332px;stroke-linecap:butt;stroke-linejoin:miter;stroke-opacity:1"
       d="m -35.69482,179.95888 2.749792,4e-4 v -15.8754 h -2.75 z"
       id="path193"
       inkscape:connector-curvature="0"
       sodipodi:nodetypes="ccccc" />
    <path
       id="path195"
       d="m -29.094974,164.08352 -6.600113,5.3e-4 v 2.7497 h 6.600113 a 2.2499999,2.2499999 0 0 1 2.24999,2.24999 2.2499999,2.2499999 0 0 1 -2.24999,2.25 v -5.3e-4 l -6.600113,5.3e-4 v 2.7497 h 6.600113 a 5,5 0 0 0 4.999694,-4.9997 5,5 0 0 0 -4.999694,-5.00021 z"
       style="fill:#000000;fill-opacity:1;stroke:none;stroke-width:0.17059942px;stroke-linecap:butt;stroke-linejoin:miter;stroke-opacity:1"
       inkscape:connector-curvature="0" />
    <path
       sodipodi:nodetypes="ccccc"
       inkscape:connector-curvature="0"
       id="path197"
       d="m -26.655706,179.95928 h 3.789148 l -5.820833,-7 h -3.789435 z"
       style="fill:#000000;fill-opacity:1;stroke:none;stroke-width:0.20624121px;stroke-linecap:butt;stroke-linejoin:miter;stroke-opacity:1" />
    <g
       id="g1330"
       transform="matrix(1.1225627,0,0,1.1225627,6.9409319,-18.449656)">
      <path
         sodipodi:nodetypes="ccccccccccccc"
         inkscape:connector-curvature="0"
         id="path4605"
         d="m -52.708723,127.42659 -1.77e-4,9.60059 h 1.663473 v -4.00024 h 4.189111 v 4.00024 h 1.662969 v -9.60059 h -1.663095 l 1.26e-4,4.00025 h -4.189111 l -2.52e-4,-4.00025 z"
         style="fill:#ffffff;fill-opacity:1;stroke:none;stroke-width:0.16000991px;stroke-linecap:butt;stroke-linejoin:miter;stroke-opacity:1" />
      <path
         style="fill:#ffffff;fill-opacity:1;stroke:none;stroke-width:0.16000487px;stroke-linecap:butt;stroke-linejoin:miter;stroke-opacity:1"
         d="m -40.702658,137.02718 h 1.662969 v -9.59999 h -1.663095 z"
         id="path4609"
         inkscape:connector-curvature="0"
         sodipodi:nodetypes="ccccc" />
      <path
         inkscape:connector-curvature="0"
         id="path4573"
         d="m -39.871237,138.56207 a 4.8380951,4.8380951 0 0 0 -4.838112,4.83811 4.8380951,4.8380951 0 0 0 4.838112,4.83811 4.8380951,4.8380951 0 0 0 4.838113,-4.83811 4.8380951,4.8380951 0 0 0 -4.838113,-4.83811 z m 0,1.66323 a 3.175,3.175 0 0 1 3.174885,3.17488 3.175,3.175 0 0 1 -3.174885,3.17489 3.175,3.175 0 0 1 -3.174885,-3.17489 3.175,3.175 0 0 1 3.174885,-3.17488 z"
         style="fill:#ffffff;stroke-width:0.07573764" />
      <path
         id="path4623"
         d="m -48.838768,138.59968 -2.32827,3.2e-4 h -1.662916 -3.2e-4 v 1.66292 h 3.2e-4 v 2.72141 h -3.2e-4 v 1.66292 h 3.2e-4 v 3.55335 h 1.662916 v -3.55335 h 0.84849 l 2.955183,3.55335 h 2.291392 l -3.033313,-3.64742 a 3.0238095,3.0238095 0 0 0 2.290142,-2.92955 3.0238095,3.0238095 0 0 0 -3.023624,-3.02394 z m -2.32827,1.66323 h 2.32827 a 1.3607142,1.3607142 0 0 1 1.360708,1.36071 1.3607142,1.3607142 0 0 1 -1.360708,1.36071 v -3.2e-4 l -2.32827,3.2e-4 z"
         style="fill:#ffffff;fill-opacity:1;stroke:none;stroke-width:0.16000991px;stroke-linecap:butt;stroke-linejoin:miter;stroke-opacity:1"
         inkscape:connector-curvature="0" />
      <g
         aria-label="HUMAN
INTERACTION &amp;
ROBOTICS GROUP"
         style="font-style:normal;font-variant:normal;font-weight:600;font-stretch:normal;font-size:6.47110271px;line-height:1.25;font-family:Raleway;-inkscape-font-specification:'Raleway Semi-Bold';letter-spacing:1.96065176px;word-spacing:0px;fill:#ffffff;fill-opacity:1;stroke:none;stroke-width:0.26962924"
         id="text955-3">
        <path
           d="m -27.254329,127.42723 v 4.59448 h -0.731235 v -2.02545 h -2.316654 v 2.02545 h -0.724764 v -4.59448 h 0.724764 v 1.92192 h 2.316654 v -1.92192 z"
           style="fill:#00a0a0;fill-opacity:1;stroke-width:0.26962924"
           id="path1376" />
        <path
           d="m -23.335762,131.74993 q 0.465919,0 0.770061,-0.17472 0.310613,-0.17472 0.485333,-0.45945 0.181191,-0.28473 0.252373,-0.64711 0.07765,-0.36238 0.07765,-0.73124 v -2.31018 h 0.330026 v 2.31018 q 0,0.45945 -0.103537,0.88007 -0.09707,0.42063 -0.323555,0.74418 -0.226489,0.31708 -0.588871,0.50475 -0.362382,0.18766 -0.893012,0.18766 -0.550044,0 -0.918897,-0.19413 -0.368852,-0.20061 -0.595341,-0.52416 -0.220017,-0.33003 -0.317084,-0.74418 -0.09059,-0.41415 -0.09059,-0.85419 v -2.31018 h 0.330026 v 2.31018 q 0,0.3818 0.07118,0.74418 0.07765,0.36238 0.258844,0.64711 0.187662,0.27826 0.491804,0.45298 0.304142,0.16825 0.76359,0.16825 z"
           style="font-style:normal;font-variant:normal;font-weight:300;font-stretch:normal;font-family:Raleway;-inkscape-font-specification:'Raleway Light';letter-spacing:0.96005952px;stroke-width:0.26962924"
           id="path1378" />
        <path
           d="m -15.167805,132.02171 v -3.97325 l -1.811908,3.09965 h -0.207076 l -1.811908,-3.09965 v 3.97325 h -0.330027 v -4.59448 h 0.330027 l 1.915446,3.28732 1.915446,-3.28732 h 0.330027 v 4.59448 z"
           style="font-style:normal;font-variant:normal;font-weight:300;font-stretch:normal;font-family:Raleway;-inkscape-font-specification:'Raleway Light';letter-spacing:0.96005952px;stroke-width:0.26962924"
           id="path1380" />
        <path
           d="m -11.225477,127.42723 h 0.284728 l 1.9413311,4.59448 h -0.3494395 l -0.6406392,-1.51423 H -12.1832 l -0.64064,1.51423 h -0.35591 z m 1.145385,2.80846 -1.003021,-2.40725 -1.022434,2.40725 z"
           style="font-style:normal;font-variant:normal;font-weight:300;font-stretch:normal;font-family:Raleway;-inkscape-font-specification:'Raleway Light';letter-spacing:0.96005952px;stroke-width:0.26962924"
           id="path1382" />
        <path
           d="m -7.005398,128.04846 v 3.97325 h -0.3300262 v -4.59448 h 0.252373 l 3.2226091,4.04444 v -4.04444 h 0.3300263 v 4.59448 h -0.3041419 z"
           style="font-style:normal;font-variant:normal;font-weight:300;font-stretch:normal;font-family:Raleway;-inkscape-font-specification:'Raleway Light';letter-spacing:0.96005952px;stroke-width:0.26962924"
           id="path1384" />
        <path
           d="m -31.026982,140.11059 v -4.59448 h 0.724764 v 4.59448 z"
           style="fill:#00a0a0;fill-opacity:1;stroke-width:0.26962924"
           id="path1386" />
        <path
           d="m -27.895969,136.13733 v 3.97326 h -0.330026 v -4.59448 h 0.252373 l 3.222609,4.04444 v -4.04444 h 0.330027 v 4.59448 h -0.304142 z"
           style="font-style:normal;font-variant:normal;font-weight:300;font-stretch:normal;font-family:Raleway;-inkscape-font-specification:'Raleway Light';letter-spacing:0.96005952px;stroke-width:0.26962924"
           id="path1388" />
        <path
           d="m -19.051275,135.81378 h -1.682487 v 4.29681 h -0.330026 v -4.29681 h -1.682487 v -0.29767 h 3.695 z"
           style="font-style:normal;font-variant:normal;font-weight:300;font-stretch:normal;font-family:Raleway;-inkscape-font-specification:'Raleway Light';letter-spacing:0.96005952px;stroke-width:0.26962924"
           id="path1390" />
        <path
           d="m -14.322,139.81292 v 0.29767 h -3.060831 v -4.59448 h 3.002591 v 0.29767 h -2.672565 v 1.80544 h 2.336068 v 0.28473 h -2.336068 v 1.90897 z"
           style="font-style:normal;font-variant:normal;font-weight:300;font-stretch:normal;font-family:Raleway;-inkscape-font-specification:'Raleway Light';letter-spacing:0.96005952px;stroke-width:0.26962924"
           id="path1392" />
        <path
           d="m -12.466804,140.11059 v -4.59448 h 1.908975 q 0.2912,0 0.537102,0.12295 0.2459014,0.12295 0.4206212,0.33003 0.1811909,0.2006 0.2782574,0.45944 0.1035376,0.25238 0.1035376,0.51122 0,0.25237 -0.077653,0.49181 -0.077653,0.23295 -0.2200175,0.42062 -0.1423642,0.18766 -0.3429684,0.31061 -0.2006041,0.12295 -0.4400351,0.16178 l 1.1453853,1.78602 h -0.3817951 l -1.1130292,-1.73425 h -1.488354 v 1.73425 z m 0.330026,-2.0384 h 1.611304 q 0.220018,0 0.401209,-0.0971 0.1811907,-0.0971 0.3106128,-0.25238 0.1294221,-0.16177 0.1941331,-0.36238 0.071182,-0.20707 0.071182,-0.42062 0,-0.22002 -0.084124,-0.42062 -0.077653,-0.20708 -0.2200175,-0.36238 -0.1358932,-0.15531 -0.3235552,-0.2459 -0.181191,-0.0971 -0.394737,-0.0971 h -1.566007 z"
           style="font-style:normal;font-variant:normal;font-weight:300;font-stretch:normal;font-family:Raleway;-inkscape-font-specification:'Raleway Light';letter-spacing:0.96005952px;stroke-width:0.26962924"
           id="path1394" />
        <path
           d="m -5.9434166,135.51611 h 0.2847285 l 1.9413308,4.59448 h -0.3494395 l -0.6406392,-1.51424 h -2.1937038 l -0.6406392,1.51424 h -0.3559106 z m 1.1453852,2.80846 -1.0030209,-2.40725 -1.0224343,2.40725 z"
           style="font-style:normal;font-variant:normal;font-weight:300;font-stretch:normal;font-family:Raleway;-inkscape-font-specification:'Raleway Light';letter-spacing:0.96005952px;stroke-width:0.26962924"
           id="path1396" />
        <path
           d="m -2.5347524,137.78099 q 0,-0.41415 0.1423643,-0.82183 0.1488353,-0.41415 0.4270928,-0.7377 0.2782574,-0.32356 0.6794657,-0.52416 0.40767952,-0.20708 0.92536774,-0.20708 0.61475475,0 1.04831864,0.28473 0.43356392,0.27826 0.64711022,0.7183 l -0.2717863,0.1553 q -0.12295092,-0.23943 -0.29119959,-0.40121 -0.16177757,-0.16177 -0.35591065,-0.25884 -0.18766198,-0.10354 -0.39473726,-0.14884 -0.20707529,-0.0453 -0.40767948,-0.0453 -0.44003498,0 -0.77653232,0.18119 -0.3364973,0.17472 -0.569457,0.45945 -0.2329597,0.28472 -0.3559107,0.64711 -0.1164798,0.35591 -0.1164798,0.71829 0,0.40768 0.1423642,0.77653 0.1423643,0.36885 0.3882662,0.65358 0.2459019,0.27826 0.5823992,0.44651 0.33649737,0.16825 0.72476353,0.16825 0.20707529,0 0.42709278,-0.0518 0.22001749,-0.0518 0.42062168,-0.16178 0.20060418,-0.11001 0.37532396,-0.27826 0.17471975,-0.17472 0.29119965,-0.40768 l 0.2847285,0.1359 q -0.1164799,0.25884 -0.317084,0.45944 -0.20060423,0.20061 -0.44650613,0.3365 -0.24590191,0.1359 -0.52415932,0.20708 -0.27178632,0.0647 -0.53710153,0.0647 -0.4723905,0 -0.86712772,-0.20708 -0.3882662,-0.20707 -0.6729947,-0.5371 -0.2847285,-0.3365 -0.4465061,-0.75712 -0.1553065,-0.42709 -0.1553065,-0.86713 z"
           style="font-style:normal;font-variant:normal;font-weight:300;font-stretch:normal;font-family:Raleway;-inkscape-font-specification:'Raleway Light';letter-spacing:0.96005952px;stroke-width:0.26962924"
           id="path1398" />
        <path
           d="M 6.3630237,135.81378 H 4.680537 v 4.29681 H 4.3505107 v -4.29681 H 2.668024 v -0.29767 h 3.6949997 z"
           style="font-style:normal;font-variant:normal;font-weight:300;font-stretch:normal;font-family:Raleway;-inkscape-font-specification:'Raleway Light';letter-spacing:0.96005952px;stroke-width:0.26962924"
           id="path1400" />
        <path
           d="m 8.0314657,140.11059 v -4.59448 H 8.361492 v 4.59448 z"
           style="font-style:normal;font-variant:normal;font-weight:300;font-stretch:normal;font-family:Raleway;-inkscape-font-specification:'Raleway Light';letter-spacing:0.96005952px;stroke-width:0.26962924"
           id="path1402" />
        <path
           d="m 12.352152,140.14295 q -0.478861,0 -0.873598,-0.20061 -0.394738,-0.2006 -0.679466,-0.52416 -0.284729,-0.32355 -0.440035,-0.74417 -0.155307,-0.42062 -0.155307,-0.86066 0,-0.45945 0.161778,-0.88007 0.168249,-0.42062 0.452977,-0.74418 0.2912,-0.32355 0.685937,-0.51121 0.394737,-0.19414 0.854186,-0.19414 0.478861,0 0.873598,0.20708 0.401209,0.2006 0.679466,0.53063 0.284729,0.33003 0.440035,0.75065 0.155307,0.41415 0.155307,0.84124 0,0.46592 -0.168249,0.88654 -0.161778,0.42062 -0.452977,0.74418 -0.284729,0.31708 -0.679466,0.51122 -0.394737,0.18766 -0.854186,0.18766 z m -1.818379,-2.3296 q 0,0.39474 0.129422,0.76359 0.135893,0.36238 0.375324,0.64711 0.245901,0.27826 0.582399,0.44651 0.336497,0.16825 0.737706,0.16825 0.41415,0 0.744176,-0.17472 0.336498,-0.17472 0.569457,-0.45945 0.239431,-0.2912 0.368853,-0.65358 0.129422,-0.36239 0.129422,-0.73771 0,-0.39474 -0.135893,-0.75712 -0.135893,-0.36885 -0.381795,-0.64711 -0.239431,-0.28473 -0.569457,-0.45298 -0.330026,-0.16824 -0.724763,-0.16824 -0.414151,0 -0.750648,0.17471 -0.336498,0.17472 -0.575929,0.46592 -0.23943,0.28473 -0.368852,0.64711 -0.129422,0.36239 -0.129422,0.73771 z"
           style="font-style:normal;font-variant:normal;font-weight:300;font-stretch:normal;font-family:Raleway;-inkscape-font-specification:'Raleway Light';letter-spacing:0.96005952px;stroke-width:0.26962924"
           id="path1404" />
        <path
           d="m 16.689522,136.13733 v 3.97326 h -0.330027 v -4.59448 h 0.252373 l 3.22261,4.04444 v -4.04444 h 0.330026 v 4.59448 h -0.304142 z"
           style="font-style:normal;font-variant:normal;font-weight:300;font-stretch:normal;font-family:Raleway;-inkscape-font-specification:'Raleway Light';letter-spacing:0.96005952px;stroke-width:0.26962924"
           id="path1406" />
        <path
           d="m 28.110838,140.11059 -0.58887,-0.61475 q -0.265315,0.31061 -0.621226,0.49827 -0.355911,0.18119 -0.789474,0.18119 -0.284729,0 -0.550044,-0.0841 -0.258844,-0.0841 -0.459448,-0.23943 -0.200605,-0.16178 -0.317084,-0.3818 -0.11648,-0.22649 -0.11648,-0.51121 0,-0.23296 0.07765,-0.4271 0.08412,-0.2006 0.220017,-0.36238 0.142365,-0.16825 0.323556,-0.31708 0.187661,-0.14884 0.394737,-0.28473 -0.181191,-0.19413 -0.310613,-0.34944 -0.122951,-0.16178 -0.200604,-0.2912 -0.07765,-0.12942 -0.11648,-0.2459 -0.03236,-0.12295 -0.03236,-0.23943 0,-0.20061 0.08413,-0.37533 0.0906,-0.18119 0.23943,-0.31708 0.148836,-0.13589 0.355911,-0.21355 0.207075,-0.0776 0.446506,-0.0776 0.220018,0 0.40768,0.0712 0.187662,0.0647 0.323555,0.18119 0.142364,0.11648 0.220017,0.27826 0.07765,0.16178 0.07765,0.34944 0,0.19413 -0.08413,0.36885 -0.08412,0.16825 -0.23296,0.32356 -0.142364,0.14883 -0.336497,0.2912 -0.187662,0.13589 -0.394737,0.27825 l 1.384816,1.43659 q 0.142364,-0.25237 0.220017,-0.55005 0.07765,-0.30414 0.07765,-0.62769 h 0.284728 q -0.01294,0.77653 -0.388266,1.38481 l 0.834772,0.86713 z m -1.960744,-0.2006 q 0.368853,0 0.666524,-0.16178 0.29767,-0.16825 0.517688,-0.44651 l -1.462469,-1.53365 q -0.187662,0.12942 -0.34944,0.25885 -0.155306,0.12942 -0.278257,0.27825 -0.122951,0.14237 -0.194133,0.31062 -0.06471,0.16177 -0.06471,0.35591 0,0.23296 0.103537,0.40768 0.103538,0.17472 0.265316,0.29767 0.168248,0.11648 0.375324,0.17472 0.213546,0.0582 0.420621,0.0582 z m -0.82183,-3.47498 q 0,0.0841 0.01941,0.16824 0.02588,0.0841 0.0906,0.19414 0.07118,0.11001 0.187662,0.25884 0.122951,0.14237 0.310613,0.34297 0.427093,-0.27826 0.685937,-0.51122 0.258844,-0.23943 0.258844,-0.5371 0,-0.27179 -0.207076,-0.44651 -0.207075,-0.18119 -0.53063,-0.18119 -0.17472,0 -0.323555,0.0582 -0.148835,0.0582 -0.258844,0.15531 -0.110009,0.0971 -0.17472,0.22649 -0.05824,0.12942 -0.05824,0.27179 z"
           style="fill:#00a0a0;fill-opacity:1;stroke-width:0.26962924"
           id="path1408" />
        <path
           d="m -31.026982,148.19947 v -4.59448 h 1.999571 q 0.310613,0 0.569457,0.12942 0.265315,0.12942 0.452977,0.34297 0.187662,0.20707 0.2912,0.47886 0.110008,0.26531 0.110008,0.54357 0,0.23296 -0.06471,0.44651 -0.06471,0.21354 -0.18119,0.39474 -0.11648,0.18119 -0.284729,0.31708 -0.168249,0.12942 -0.368853,0.19413 l 1.080674,1.7472 h -0.82183 l -0.99655,-1.59836 h -1.06126 v 1.59836 z m 0.724764,-2.239 h 1.268336 q 0.155306,0 0.278257,-0.0647 0.129422,-0.0712 0.220018,-0.18766 0.0906,-0.12296 0.142364,-0.27826 0.05177,-0.15531 0.05177,-0.33003 0,-0.17472 -0.06471,-0.33002 -0.05824,-0.15531 -0.161778,-0.27179 -0.09707,-0.11648 -0.23296,-0.18119 -0.129422,-0.0712 -0.271786,-0.0712 h -1.229509 z"
           style="font-style:normal;font-variant:normal;font-weight:600;font-stretch:normal;font-family:Raleway;-inkscape-font-specification:'Raleway Semi-Bold';letter-spacing:0.96005952px;fill:#00a0a0;fill-opacity:1;stroke-width:0.26962924"
           id="path1410" />
        <path
           d="m -23.886008,148.23183 q -0.491804,0 -0.899483,-0.19414 -0.401209,-0.2006 -0.692408,-0.52416 -0.2912,-0.33002 -0.452978,-0.75064 -0.155306,-0.42063 -0.155306,-0.86066 0,-0.45945 0.168249,-0.88007 0.168248,-0.42062 0.459448,-0.74418 0.297671,-0.32355 0.698879,-0.51122 0.407679,-0.19413 0.886541,-0.19413 0.491804,0 0.893012,0.20708 0.40768,0.2006 0.692408,0.53063 0.2912,0.33002 0.446506,0.75065 0.161778,0.41415 0.161778,0.84771 0,0.45945 -0.168249,0.88007 -0.161777,0.42062 -0.459448,0.74418 -0.297671,0.31708 -0.70535,0.51121 -0.401209,0.18767 -0.873599,0.18767 z m -1.462469,-2.3296 q 0,0.32355 0.103537,0.6277 0.103538,0.30414 0.2912,0.5371 0.194133,0.23296 0.465919,0.37532 0.271787,0.13589 0.608284,0.13589 0.34944,0 0.614755,-0.14236 0.271786,-0.14884 0.459448,-0.38827 0.187662,-0.23943 0.284729,-0.5371 0.09707,-0.29767 0.09707,-0.60828 0,-0.33003 -0.103538,-0.6277 -0.103537,-0.30414 -0.29767,-0.53063 -0.187662,-0.23296 -0.459449,-0.36885 -0.265315,-0.14237 -0.595341,-0.14237 -0.34944,0 -0.621226,0.14884 -0.271786,0.14236 -0.459448,0.37532 -0.187662,0.23296 -0.2912,0.5371 -0.09707,0.29768 -0.09707,0.60829 z"
           style="font-style:normal;font-variant:normal;font-weight:600;font-stretch:normal;font-family:Raleway;-inkscape-font-specification:'Raleway Semi-Bold';letter-spacing:0.96005952px;fill:#00a0a0;fill-opacity:1;stroke-width:0.26962924"
           id="path1412" />
        <path
           d="m -16.500447,147.00879 q 0,0.25237 -0.09707,0.47239 -0.09707,0.21354 -0.265315,0.37532 -0.168249,0.16178 -0.394737,0.25237 -0.226489,0.0906 -0.478862,0.0906 h -2.148406 v -4.59448 h 2.141935 q 0.239431,0 0.433564,0.10353 0.194133,0.10354 0.330026,0.27179 0.135893,0.16178 0.207075,0.37533 0.07765,0.20707 0.07765,0.42062 0,0.34944 -0.17472,0.64064 -0.17472,0.2912 -0.485333,0.42709 0.394737,0.11648 0.621226,0.44003 0.23296,0.31709 0.23296,0.72477 z m -0.330027,-0.0453 q 0,-0.18119 -0.06471,-0.34944 -0.06471,-0.17472 -0.181191,-0.30414 -0.116479,-0.1359 -0.278257,-0.21355 -0.155306,-0.0777 -0.336497,-0.0777 h -1.863678 v 1.88309 h 1.81838 q 0.194133,0 0.355911,-0.0777 0.168248,-0.0777 0.284728,-0.20708 0.122951,-0.13589 0.194133,-0.30414 0.07118,-0.16825 0.07118,-0.34944 z m -2.724334,-3.06083 v 1.83779 h 1.682487 q 0.187662,0 0.342968,-0.0777 0.155307,-0.0777 0.265315,-0.20061 0.11648,-0.12942 0.181191,-0.29767 0.06471,-0.16825 0.06471,-0.34297 0,-0.18766 -0.06471,-0.34944 -0.05824,-0.16824 -0.168248,-0.29119 -0.103538,-0.12943 -0.252373,-0.20061 -0.148836,-0.0777 -0.330027,-0.0777 z"
           style="font-style:normal;font-variant:normal;font-weight:300;font-stretch:normal;font-family:Raleway;-inkscape-font-specification:'Raleway Light';letter-spacing:0.96005952px;fill:#ffffff;stroke-width:0.26962924"
           id="path1414" />
        <path
           d="m -12.808874,148.23183 q -0.478861,0 -0.873598,-0.20061 -0.394738,-0.2006 -0.679466,-0.52416 -0.284729,-0.32355 -0.440035,-0.74417 -0.155307,-0.42063 -0.155307,-0.86066 0,-0.45945 0.161778,-0.88007 0.168249,-0.42062 0.452977,-0.74418 0.2912,-0.32355 0.685937,-0.51122 0.394737,-0.19413 0.854186,-0.19413 0.478861,0 0.873598,0.20708 0.401209,0.2006 0.679466,0.53063 0.284729,0.33002 0.440035,0.75065 0.155307,0.41415 0.155307,0.84124 0,0.46592 -0.168249,0.88654 -0.161778,0.42062 -0.452977,0.74418 -0.284729,0.31708 -0.679466,0.51121 -0.394737,0.18767 -0.854186,0.18767 z m -1.818379,-2.3296 q 0,0.39474 0.129422,0.76359 0.135893,0.36238 0.375324,0.64711 0.245901,0.27826 0.582399,0.44651 0.336497,0.16824 0.737706,0.16824 0.41415,0 0.744176,-0.17472 0.336498,-0.17472 0.569457,-0.45944 0.239431,-0.2912 0.368853,-0.65359 0.129422,-0.36238 0.129422,-0.7377 0,-0.39474 -0.135893,-0.75712 -0.135893,-0.36885 -0.381795,-0.64711 -0.239431,-0.28473 -0.569457,-0.45298 -0.330026,-0.16825 -0.724763,-0.16825 -0.414151,0 -0.750648,0.17472 -0.336498,0.17472 -0.575929,0.46592 -0.23943,0.28473 -0.368852,0.64711 -0.129422,0.36238 -0.129422,0.73771 z"
           style="font-style:normal;font-variant:normal;font-weight:300;font-stretch:normal;font-family:Raleway;-inkscape-font-specification:'Raleway Light';letter-spacing:0.96005952px;fill:#ffffff;stroke-width:0.26962924"
           id="path1416" />
        <path
           d="m -5.8067265,143.90266 h -1.6824867 v 4.29681 h -0.3300263 v -4.29681 h -1.6824867 v -0.29767 h 3.6949997 z"
           style="font-style:normal;font-variant:normal;font-weight:300;font-stretch:normal;font-family:Raleway;-inkscape-font-specification:'Raleway Light';letter-spacing:0.96005952px;fill:#ffffff;stroke-width:0.26962924"
           id="path1418" />
        <path
           d="m -4.1382826,148.19947 v -4.59448 h 0.3300263 v 4.59448 z"
           style="font-style:normal;font-variant:normal;font-weight:300;font-stretch:normal;font-family:Raleway;-inkscape-font-specification:'Raleway Light';letter-spacing:0.96005952px;fill:#ffffff;stroke-width:0.26962924"
           id="path1420" />
        <path
           d="m -1.9660039,145.86987 q 0,-0.41415 0.1423643,-0.82183 0.1488353,-0.41415 0.4270927,-0.7377 0.2782575,-0.32356 0.67946582,-0.52416 0.40767947,-0.20708 0.92536769,-0.20708 0.61475476,0 1.04831859,0.28473 0.4335639,0.27826 0.6471103,0.71829 l -0.2717863,0.15531 Q 1.5089783,144.498 1.3407296,144.33622 1.178952,144.17444 0.98481894,144.07738 q -0.18766198,-0.10354 -0.39473727,-0.14884 -0.20707529,-0.0453 -0.40767947,-0.0453 -0.44003499,0 -0.77653233,0.1812 -0.33649734,0.17472 -0.56945707,0.45944 -0.2329597,0.28473 -0.3559106,0.64711 -0.1164799,0.35591 -0.1164799,0.7183 0,0.40768 0.1423643,0.77653 0.1423643,0.36885 0.3882662,0.65358 0.24590186,0.27826 0.5823992,0.44651 0.33649734,0.16824 0.72476351,0.16824 0.20707528,0 0.42709278,-0.0518 0.22001749,-0.0518 0.42062171,-0.16178 0.2006041,-0.11001 0.3753239,-0.27826 0.1747198,-0.17472 0.2911996,-0.40768 l 0.2847286,0.13589 q -0.1164799,0.25885 -0.3170841,0.45945 -0.2006042,0.20061 -0.4465061,0.3365 -0.24590186,0.13589 -0.52415928,0.20708 -0.27178631,0.0647 -0.53710152,0.0647 -0.4723905,0 -0.86712777,-0.20708 -0.38826613,-0.20707 -0.67299463,-0.5371 -0.2847286,-0.3365 -0.4465061,-0.75712 -0.1553065,-0.42709 -0.1553065,-0.86713 z"
           style="font-style:normal;font-variant:normal;font-weight:300;font-stretch:normal;font-family:Raleway;-inkscape-font-specification:'Raleway Light';letter-spacing:0.96005952px;fill:#ffffff;stroke-width:0.26962924"
           id="path1422" />
        <path
           d="m 6.4452268,144.36858 q -0.4465061,-0.49828 -1.261865,-0.49828 -0.6729947,0 -0.9836076,0.25885 -0.3041418,0.25237 -0.3041418,0.68593 0,0.22002 0.077653,0.36886 0.077653,0.14236 0.2394308,0.2459 0.1682487,0.10354 0.4206217,0.17472 0.252373,0.0712 0.6082836,0.14883 0.3688529,0.0777 0.6665236,0.17472 0.3041418,0.0906 0.5112171,0.23296 0.2135464,0.14237 0.3235551,0.34944 0.1164799,0.20708 0.1164799,0.51122 0,0.30414 -0.122951,0.53063 -0.1164798,0.22649 -0.3364973,0.38179 -0.2135464,0.14884 -0.5176882,0.22649 -0.2976707,0.0777 -0.6665236,0.0777 -1.074203,0 -1.8183799,-0.68594 l 0.1747198,-0.26532 q 0.2911996,0.30415 0.7118213,0.48534 0.4206217,0.17472 0.944781,0.17472 0.6018126,0 0.9383099,-0.22002 0.3429684,-0.22002 0.3429684,-0.66652 0,-0.22649 -0.090595,-0.3818 -0.090595,-0.16178 -0.2717863,-0.27826 -0.1747198,-0.11648 -0.4465061,-0.2006 -0.2717863,-0.0841 -0.6341681,-0.16178 -0.3688528,-0.0777 -0.6535813,-0.16178 -0.2782574,-0.0906 -0.4723905,-0.22001 -0.187662,-0.1359 -0.2847285,-0.32356 -0.097067,-0.18766 -0.097067,-0.47239 0,-0.31061 0.1164799,-0.55004 0.1229509,-0.23943 0.3364973,-0.40121 0.2135464,-0.16825 0.5112171,-0.25237 0.2976707,-0.0841 0.6600525,-0.0841 0.4465061,0 0.7959456,0.13589 0.3494396,0.12943 0.6341681,0.40121 z"
           style="font-style:normal;font-variant:normal;font-weight:300;font-stretch:normal;font-family:Raleway;-inkscape-font-specification:'Raleway Light';letter-spacing:0.96005952px;fill:#ffffff;stroke-width:0.26962924"
           id="path1424" />
        <path
           d="m 14.663548,147.48118 q -0.666523,0.75065 -1.546593,0.75065 -0.46592,0 -0.867128,-0.20061 -0.394737,-0.2006 -0.679466,-0.53063 -0.284728,-0.33003 -0.446506,-0.75065 -0.161777,-0.42062 -0.161777,-0.85418 0,-0.45298 0.155306,-0.8736 0.161778,-0.42062 0.440035,-0.74418 0.284729,-0.32355 0.672995,-0.51122 0.388266,-0.19413 0.847714,-0.19413 0.342969,0 0.614755,0.0777 0.278257,0.0712 0.491804,0.20708 0.220017,0.12942 0.375324,0.31708 0.161777,0.1812 0.271786,0.40121 l -0.271786,0.16178 q -0.23296,-0.45298 -0.621226,-0.65358 -0.381795,-0.20708 -0.867128,-0.20708 -0.407679,0 -0.737706,0.17472 -0.330026,0.17472 -0.562986,0.45945 -0.232959,0.28473 -0.35591,0.64711 -0.122951,0.36238 -0.122951,0.74418 0,0.40768 0.142364,0.77653 0.142364,0.36238 0.388266,0.64064 0.252373,0.27826 0.588871,0.44651 0.336497,0.16177 0.724763,0.16177 0.420622,0 0.795946,-0.19413 0.381795,-0.19413 0.731234,-0.61475 v -0.88655 h -1.041847 v -0.26531 h 1.326576 v 2.23253 h -0.284729 z"
           style="font-style:normal;font-variant:normal;font-weight:300;font-stretch:normal;font-family:Raleway;-inkscape-font-specification:'Raleway Light';letter-spacing:0.96005952px;fill:#ffffff;stroke-width:0.26962924"
           id="path1426" />
        <path
           d="m 16.877688,148.19947 v -4.59448 h 1.908975 q 0.2912,0 0.537101,0.12295 0.245902,0.12295 0.420622,0.33002 0.181191,0.20061 0.278258,0.45945 0.103537,0.25238 0.103537,0.51122 0,0.25237 -0.07765,0.4918 -0.07765,0.23296 -0.220018,0.42063 -0.142364,0.18766 -0.342968,0.31061 -0.200604,0.12295 -0.440035,0.16178 l 1.145385,1.78602 h -0.381795 l -1.113029,-1.73426 h -1.488354 v 1.73426 z m 0.330026,-2.0384 h 1.611304 q 0.220018,0 0.401209,-0.0971 0.181191,-0.0971 0.310613,-0.25238 0.129422,-0.16177 0.194133,-0.36238 0.07118,-0.20707 0.07118,-0.42062 0,-0.22002 -0.08412,-0.42062 -0.07765,-0.20708 -0.220018,-0.36238 -0.135893,-0.15531 -0.323555,-0.24591 -0.181191,-0.0971 -0.394737,-0.0971 h -1.566007 z"
           style="font-style:normal;font-variant:normal;font-weight:300;font-stretch:normal;font-family:Raleway;-inkscape-font-specification:'Raleway Light';letter-spacing:0.96005952px;fill:#ffffff;stroke-width:0.26962924"
           id="path1428" />
        <path
           d="m 23.865176,148.23183 q -0.478862,0 -0.873599,-0.20061 -0.394737,-0.2006 -0.679466,-0.52416 -0.284728,-0.32355 -0.440035,-0.74417 -0.155306,-0.42063 -0.155306,-0.86066 0,-0.45945 0.161777,-0.88007 0.168249,-0.42062 0.452977,-0.74418 0.2912,-0.32355 0.685937,-0.51122 0.394738,-0.19413 0.854186,-0.19413 0.478861,0 0.873599,0.20708 0.401208,0.2006 0.679466,0.53063 0.284728,0.33002 0.440035,0.75065 0.155306,0.41415 0.155306,0.84124 0,0.46592 -0.168249,0.88654 -0.161777,0.42062 -0.452977,0.74418 -0.284728,0.31708 -0.679466,0.51121 -0.394737,0.18767 -0.854185,0.18767 z m -1.81838,-2.3296 q 0,0.39474 0.129422,0.76359 0.135893,0.36238 0.375324,0.64711 0.245902,0.27826 0.582399,0.44651 0.336498,0.16824 0.737706,0.16824 0.41415,0 0.744177,-0.17472 0.336497,-0.17472 0.569457,-0.45944 0.239431,-0.2912 0.368853,-0.65359 0.129422,-0.36238 0.129422,-0.7377 0,-0.39474 -0.135894,-0.75712 -0.135893,-0.36885 -0.381795,-0.64711 -0.23943,-0.28473 -0.569457,-0.45298 -0.330026,-0.16825 -0.724763,-0.16825 -0.414151,0 -0.750648,0.17472 -0.336497,0.17472 -0.575928,0.46592 -0.239431,0.28473 -0.368853,0.64711 -0.129422,0.36238 -0.129422,0.73771 z"
           style="font-style:normal;font-variant:normal;font-weight:300;font-stretch:normal;font-family:Raleway;-inkscape-font-specification:'Raleway Light';letter-spacing:0.96005952px;fill:#ffffff;stroke-width:0.26962924"
           id="path1430" />
        <path
           d="m 29.716783,147.92768 q 0.465919,0 0.770061,-0.17472 0.310613,-0.17472 0.485333,-0.45944 0.181191,-0.28473 0.252373,-0.64711 0.07765,-0.36239 0.07765,-0.73124 v -2.31018 h 0.330026 v 2.31018 q 0,0.45945 -0.103537,0.88007 -0.09707,0.42062 -0.323555,0.74418 -0.226489,0.31708 -0.588871,0.50474 -0.362381,0.18767 -0.893012,0.18767 -0.550044,0 -0.918896,-0.19414 -0.368853,-0.2006 -0.595342,-0.52416 -0.220017,-0.33002 -0.317084,-0.74417 -0.0906,-0.41415 -0.0906,-0.85419 v -2.31018 h 0.330026 v 2.31018 q 0,0.3818 0.07118,0.74418 0.07765,0.36238 0.258844,0.64711 0.187662,0.27826 0.491804,0.45298 0.304142,0.16824 0.76359,0.16824 z"
           style="font-style:normal;font-variant:normal;font-weight:300;font-stretch:normal;font-family:Raleway;-inkscape-font-specification:'Raleway Light';letter-spacing:0.96005952px;fill:#ffffff;stroke-width:0.26962924"
           id="path1432" />
        <path
           d="m 33.723822,148.19947 v -4.59448 h 1.889562 q 0.291199,0 0.537101,0.12295 0.245902,0.12295 0.420622,0.33002 0.181191,0.20061 0.278257,0.45945 0.103538,0.25238 0.103538,0.51122 0,0.27826 -0.09707,0.5371 -0.0906,0.25885 -0.265316,0.45945 -0.168248,0.2006 -0.407679,0.32355 -0.239431,0.11648 -0.530631,0.11648 h -1.598362 v 1.73426 z m 0.330026,-2.0384 h 1.58542 q 0.226489,0 0.40768,-0.0906 0.181191,-0.0971 0.304142,-0.25238 0.129422,-0.16177 0.194133,-0.36238 0.07118,-0.20707 0.07118,-0.42709 0,-0.22649 -0.08413,-0.42709 -0.07765,-0.20708 -0.220017,-0.36238 -0.135893,-0.15531 -0.323555,-0.24591 -0.181191,-0.0906 -0.388266,-0.0906 h -1.546594 z"
           style="font-style:normal;font-variant:normal;font-weight:300;font-stretch:normal;font-family:Raleway;-inkscape-font-specification:'Raleway Light';letter-spacing:0.96005952px;fill:#ffffff;stroke-width:0.26962924"
           id="path1434" />
      </g>
      <path
         inkscape:transform-center-y="3.8968493"
         inkscape:transform-center-x="-1.660801"
         id="path1084"
         d="m 36.9816,133.77005 c -0.281917,0.0712 -0.570947,0.0646 -0.84055,-0.009 -0.462113,-0.12593 -0.866523,-0.44905 -1.078161,-0.91931 l -1.627259,-3.52255 c 0.04687,0.0114 2.552659,-0.29037 3.032735,-1.38184 l 1.607946,3.53432 c 0.376242,0.83599 0.0044,1.82124 -0.816001,2.20128 -0.09143,0.0412 -0.184707,0.0735 -0.278708,0.0971 z m -0.176752,-0.79036 a 0.94877763,0.94877763 0 0 0 0.676125,-0.69264 0.94877763,0.94877763 0 0 0 -0.697979,-1.14562 0.94877763,0.94877763 0 0 0 -1.14604,0.69772 0.94877763,0.94877763 0 0 0 0.698476,1.14621 0.94877763,0.94877763 0 0 0 0.469418,-0.005 z"
         style="fill:#00a0a0;fill-opacity:1;stroke-width:0.04020244"
         inkscape:connector-curvature="0" />
      <path
         id="path1064"
         d="m 34.168711,129.44213 c -1.366881,0 -2.492579,-1.1257 -2.492579,-2.49259 v -1.8171 h 4.985159 v 1.8171 c 0,1.36689 -1.125695,2.49259 -2.49258,2.49259 z m 0,-1.9136 a 0.54675319,0.54675319 0 0 0 0.546695,-0.5467 0.54675319,0.54675319 0 0 0 -0.546695,-0.5467 0.54675319,0.54675319 0 0 0 -0.546694,0.5467 0.54675319,0.54675319 0 0 0 0.546694,0.5467 z"
         style="fill:#ffffff;stroke-width:0.04020244"
         inkscape:connector-curvature="0" />
      <path
         inkscape:transform-center-y="-0.92245615"
         inkscape:transform-center-x="2.1147734"
         id="path6"
         d="m 29.883456,131.96224 -3.102989,-1.85984 c 0.152561,-0.0533 0.278384,-0.14985 0.380773,-0.27384 l 2.680357,1.60358 c -0.02277,0.15816 -0.0152,0.32396 0.02963,0.49438 0.0034,0.0123 0.0084,0.0238 0.01223,0.0357 z m 0.262723,-1.17794 -2.814313,-1.34446 c 0.03232,-0.14018 0.04519,-0.29211 0.03489,-0.47161 l 3.19696,1.52776 c -0.1609,0.0658 -0.302853,0.16455 -0.417545,0.28832 z"
         style="fill:#00a0a0;fill-opacity:1;stroke-width:0.04020244"
         inkscape:connector-curvature="0" />
      <path
         inkscape:connector-curvature="0"
         id="path1079"
         d="m 30.726841,130.24619 c -0.313821,-0.006 -0.615648,0.10887 -0.835052,0.33128 -0.193966,0.16982 -0.316314,0.40645 -0.364085,0.68691 -0.04723,0.32067 0.04139,0.63284 0.221889,0.87693 0.02258,0.0305 0.04677,0.0599 0.07219,0.0881 0.04447,0.0493 0.09275,0.0955 0.145009,0.13689 0.156545,0.12461 0.346167,0.21117 0.556597,0.2422 l 4.838425,0.6816 c -0.120227,-0.12902 -0.222711,-0.27877 -0.299081,-0.44846 l -0.980686,-2.12295 -3.2202,-0.46252 c -0.04511,-0.006 -0.09018,-0.009 -0.135008,-0.01 z m 0.02844,0.48128 a 0.67540098,0.67540098 0 0 1 0.535033,0.24283 0.67540098,0.67540098 0 0 1 -0.08657,0.951 0.67540098,0.67540098 0 0 1 -0.855053,0.008 0.67540098,0.67540098 0 0 1 -0.05032,-0.0447 0.67540098,0.67540098 0 0 1 -0.04594,-0.05 0.67540098,0.67540098 0 0 1 0.08688,-0.95131 0.67540098,0.67540098 0 0 1 0.415964,-0.15595 z"
         style="fill:#ffffff;stroke-width:0.04020244" />
      <path
         id="path24"
         d="m 25.679517,131.87379 c 0,0.40203 0.04824,0.85229 0.144728,1.22215 h 0.385944 v -0.85229 c -0.144729,-0.0643 -0.241215,-0.19297 -0.241215,-0.35378 0,-0.20905 0.176891,-0.38594 0.385943,-0.38594 0.209052,0 0.385943,0.17689 0.385943,0.38594 0,0.16081 -0.09649,0.30554 -0.241214,0.35378 v 0.85229 h 0.385944 c 0.09648,-0.38594 0.144728,-0.82012 0.144728,-1.22215 0,-0.27338 -0.01608,-0.48243 -0.06432,-0.65932 h -1.206073 c -0.04824,0.17689 -0.08041,0.40202 -0.08041,0.65932 z"
         style="fill:#00a0a0;fill-opacity:1;stroke-width:0.04020244"
         inkscape:connector-curvature="0" />
      <path
         style="fill:#ffffff;stroke-width:0.04020244"
         d="m 26.354918,128.04636 c -0.594996,0 -1.093389,0.35394 -1.093389,1.59218 0,0.51459 0.0802,1.09344 0.224925,1.57587 h 1.736927 c 0.144729,-0.48243 0.224925,-1.06128 0.224925,-1.57587 0,-1.23824 -0.48231,-1.59218 -1.093388,-1.59218 z m 0,0.85249 a 0.36986246,0.36986246 0 0 1 0.370017,0.36968 0.36986246,0.36986246 0 0 1 -0.370017,0.37001 0.36986246,0.36986246 0 0 1 -0.370017,-0.37001 0.36986246,0.36986246 0 0 1 0.370017,-0.36968 z"
         id="path26"
         inkscape:connector-curvature="0" />
    </g>
    <g
       id="g30"
       transform="matrix(-0.0598523,0,0,0.0598523,107.77405,110.13588)" />
    <g
       id="g32"
       transform="matrix(-0.0598523,0,0,0.0598523,107.77405,110.13588)" />
    <g
       id="g34"
       transform="matrix(-0.0598523,0,0,0.0598523,107.77405,110.13588)" />
    <g
       id="g36"
       transform="matrix(-0.0598523,0,0,0.0598523,107.77405,110.13588)" />
    <g
       id="g38"
       transform="matrix(-0.0598523,0,0,0.0598523,107.77405,110.13588)" />
    <g
       id="g40"
       transform="matrix(-0.0598523,0,0,0.0598523,107.77405,110.13588)" />
    <g
       id="g42"
       transform="matrix(-0.0598523,0,0,0.0598523,107.77405,110.13588)" />
    <g
       id="g44"
       transform="matrix(-0.0598523,0,0,0.0598523,107.77405,110.13588)" />
    <g
       id="g46"
       transform="matrix(-0.0598523,0,0,0.0598523,107.77405,110.13588)" />
    <g
       id="g48"
       transform="matrix(-0.0598523,0,0,0.0598523,107.77405,110.13588)" />
    <g
       id="g50"
       transform="matrix(-0.0598523,0,0,0.0598523,107.77405,110.13588)" />
    <g
       id="g52"
       transform="matrix(-0.0598523,0,0,0.0598523,107.77405,110.13588)" />
    <g
       id="g54"
       transform="matrix(-0.0598523,0,0,0.0598523,107.77405,110.13588)" />
    <g
       id="g56"
       transform="matrix(-0.0598523,0,0,0.0598523,107.77405,110.13588)" />
    <g
       id="g58"
       transform="matrix(-0.0598523,0,0,0.0598523,107.77405,110.13588)" />
    <g
       transform="matrix(1.1225627,0,0,1.1225627,6.1328847,-57.235922)"
       id="g1374">
      <rect
         style="fill:#282828;fill-opacity:1;stroke-width:0.33116055"
         id="rect1332"
         width="97.106674"
         height="25.455149"
         x="-56.631699"
         y="125.07729" />
      <path
         style="fill:#ffffff;fill-opacity:1;stroke:none;stroke-width:0.16000991px;stroke-linecap:butt;stroke-linejoin:miter;stroke-opacity:1"
         d="m -52.708723,127.42659 -1.77e-4,9.60059 h 1.663473 v -4.00024 h 4.189111 v 4.00024 h 1.662969 v -9.60059 h -1.663095 l 1.26e-4,4.00025 h -4.189111 l -2.52e-4,-4.00025 z"
         id="path1334"
         inkscape:connector-curvature="0"
         sodipodi:nodetypes="ccccccccccccc" />
      <path
         sodipodi:nodetypes="ccccc"
         inkscape:connector-curvature="0"
         id="path1336"
         d="m -40.702658,137.02718 h 1.662969 v -9.59999 h -1.663095 z"
         style="fill:#ffffff;fill-opacity:1;stroke:none;stroke-width:0.16000487px;stroke-linecap:butt;stroke-linejoin:miter;stroke-opacity:1" />
      <path
         style="fill:#ffffff;stroke-width:0.07573764"
         d="m -39.871237,138.56207 a 4.8380951,4.8380951 0 0 0 -4.838112,4.83811 4.8380951,4.8380951 0 0 0 4.838112,4.83811 4.8380951,4.8380951 0 0 0 4.838113,-4.83811 4.8380951,4.8380951 0 0 0 -4.838113,-4.83811 z m 0,1.66323 a 3.175,3.175 0 0 1 3.174885,3.17488 3.175,3.175 0 0 1 -3.174885,3.17489 3.175,3.175 0 0 1 -3.174885,-3.17489 3.175,3.175 0 0 1 3.174885,-3.17488 z"
         id="path1338"
         inkscape:connector-curvature="0" />
      <path
         inkscape:connector-curvature="0"
         style="fill:#ffffff;fill-opacity:1;stroke:none;stroke-width:0.16000991px;stroke-linecap:butt;stroke-linejoin:miter;stroke-opacity:1"
         d="m -48.838768,138.59968 -2.32827,3.2e-4 h -1.662916 -3.2e-4 v 1.66292 h 3.2e-4 v 2.72141 h -3.2e-4 v 1.66292 h 3.2e-4 v 3.55335 h 1.662916 v -3.55335 h 0.84849 l 2.955183,3.55335 h 2.291392 l -3.033313,-3.64742 a 3.0238095,3.0238095 0 0 0 2.290142,-2.92955 3.0238095,3.0238095 0 0 0 -3.023624,-3.02394 z m -2.32827,1.66323 h 2.32827 a 1.3607142,1.3607142 0 0 1 1.360708,1.36071 1.3607142,1.3607142 0 0 1 -1.360708,1.36071 v -3.2e-4 l -2.32827,3.2e-4 z"
         id="path1340" />
      <text
         xml:space="preserve"
         style="font-style:normal;font-variant:normal;font-weight:600;font-stretch:normal;font-size:6.47110271px;line-height:1.25;font-family:Raleway;-inkscape-font-specification:'Raleway Semi-Bold';letter-spacing:1.96065176px;word-spacing:0px;fill:#ffffff;fill-opacity:1;stroke:none;stroke-width:0.26962924"
         x="-31.54467"
         y="132.02171"
         id="text1360"><tspan
           sodipodi:role="line"
           id="tspan1346"
           x="-31.54467"
           y="132.02171"
           style="font-style:normal;font-variant:normal;font-weight:600;font-stretch:normal;font-family:Raleway;-inkscape-font-specification:'Raleway Semi-Bold';letter-spacing:0.96005952px;fill:#ffffff;stroke-width:0.26962924"><tspan
             style="fill:#00a0a0;fill-opacity:1;stroke-width:0.26962924"
             id="tspan1342">H</tspan><tspan
             style="font-style:normal;font-variant:normal;font-weight:300;font-stretch:normal;font-family:Raleway;-inkscape-font-specification:'Raleway Light';letter-spacing:0.96005952px;stroke-width:0.26962924"
             id="tspan1344">UMAN</tspan></tspan><tspan
           sodipodi:role="line"
           x="-31.54467"
           y="140.1106"
           style="font-style:normal;font-variant:normal;font-weight:600;font-stretch:normal;font-family:Raleway;-inkscape-font-specification:'Raleway Semi-Bold';letter-spacing:0.96005952px;fill:#ffffff;stroke-width:0.26962924"
           id="tspan1354"><tspan
             style="fill:#00a0a0;fill-opacity:1;stroke-width:0.26962924"
             id="tspan1348">I</tspan><tspan
             style="font-style:normal;font-variant:normal;font-weight:300;font-stretch:normal;font-family:Raleway;-inkscape-font-specification:'Raleway Light';letter-spacing:0.96005952px;stroke-width:0.26962924"
             id="tspan1352">NTERACTION <tspan
   style="fill:#00a0a0;fill-opacity:1;stroke-width:0.26962924"
   id="tspan1350">&amp;</tspan></tspan></tspan><tspan
           sodipodi:role="line"
           x="-31.54467"
           y="148.19946"
           style="font-style:normal;font-variant:normal;font-weight:300;font-stretch:normal;font-family:Raleway;-inkscape-font-specification:'Raleway Light';letter-spacing:0.96005952px;fill:#ffffff;stroke-width:0.26962924"
           id="tspan1358"><tspan
   id="tspan1356"
   style="font-style:normal;font-variant:normal;font-weight:600;font-stretch:normal;font-family:Raleway;-inkscape-font-specification:'Raleway Semi-Bold';letter-spacing:0.96005952px;fill:#00a0a0;fill-opacity:1;stroke-width:0.26962924">RO</tspan>BOTICS GROUP</tspan></text>
      <path
         inkscape:connector-curvature="0"
         style="fill:#00a0a0;fill-opacity:1;stroke-width:0.04020244"
         d="m 36.9816,133.77005 c -0.281917,0.0712 -0.570947,0.0646 -0.84055,-0.009 -0.462113,-0.12593 -0.866523,-0.44905 -1.078161,-0.91931 l -1.627259,-3.52255 c 0.04687,0.0114 2.552659,-0.29037 3.032735,-1.38184 l 1.607946,3.53432 c 0.376242,0.83599 0.0044,1.82124 -0.816001,2.20128 -0.09143,0.0412 -0.184707,0.0735 -0.278708,0.0971 z m -0.176752,-0.79036 a 0.94877763,0.94877763 0 0 0 0.676125,-0.69264 0.94877763,0.94877763 0 0 0 -0.697979,-1.14562 0.94877763,0.94877763 0 0 0 -1.14604,0.69772 0.94877763,0.94877763 0 0 0 0.698476,1.14621 0.94877763,0.94877763 0 0 0 0.469418,-0.005 z"
         id="path1362"
         inkscape:transform-center-x="-1.660801"
         inkscape:transform-center-y="3.8968493" />
      <path
         inkscape:connector-curvature="0"
         style="fill:#ffffff;stroke-width:0.04020244"
         d="m 34.168711,129.44213 c -1.366881,0 -2.492579,-1.1257 -2.492579,-2.49259 v -1.8171 h 4.985159 v 1.8171 c 0,1.36689 -1.125695,2.49259 -2.49258,2.49259 z m 0,-1.9136 a 0.54675319,0.54675319 0 0 0 0.546695,-0.5467 0.54675319,0.54675319 0 0 0 -0.546695,-0.5467 0.54675319,0.54675319 0 0 0 -0.546694,0.5467 0.54675319,0.54675319 0 0 0 0.546694,0.5467 z"
         id="path1364" />
      <path
         inkscape:connector-curvature="0"
         style="fill:#00a0a0;fill-opacity:1;stroke-width:0.04020244"
         d="m 29.883456,131.96224 -3.102989,-1.85984 c 0.152561,-0.0533 0.278384,-0.14985 0.380773,-0.27384 l 2.680357,1.60358 c -0.02277,0.15816 -0.0152,0.32396 0.02963,0.49438 0.0034,0.0123 0.0084,0.0238 0.01223,0.0357 z m 0.262723,-1.17794 -2.814313,-1.34446 c 0.03232,-0.14018 0.04519,-0.29211 0.03489,-0.47161 l 3.19696,1.52776 c -0.1609,0.0658 -0.302853,0.16455 -0.417545,0.28832 z"
         id="path1366"
         inkscape:transform-center-x="2.1147734"
         inkscape:transform-center-y="-0.92245615" />
      <path
         style="fill:#ffffff;stroke-width:0.04020244"
         d="m 30.726841,130.24619 c -0.313821,-0.006 -0.615648,0.10887 -0.835052,0.33128 -0.193966,0.16982 -0.316314,0.40645 -0.364085,0.68691 -0.04723,0.32067 0.04139,0.63284 0.221889,0.87693 0.02258,0.0305 0.04677,0.0599 0.07219,0.0881 0.04447,0.0493 0.09275,0.0955 0.145009,0.13689 0.156545,0.12461 0.346167,0.21117 0.556597,0.2422 l 4.838425,0.6816 c -0.120227,-0.12902 -0.222711,-0.27877 -0.299081,-0.44846 l -0.980686,-2.12295 -3.2202,-0.46252 c -0.04511,-0.006 -0.09018,-0.009 -0.135008,-0.01 z m 0.02844,0.48128 a 0.67540098,0.67540098 0 0 1 0.535033,0.24283 0.67540098,0.67540098 0 0 1 -0.08657,0.951 0.67540098,0.67540098 0 0 1 -0.855053,0.008 0.67540098,0.67540098 0 0 1 -0.05032,-0.0447 0.67540098,0.67540098 0 0 1 -0.04594,-0.05 0.67540098,0.67540098 0 0 1 0.08688,-0.95131 0.67540098,0.67540098 0 0 1 0.415964,-0.15595 z"
         id="path1368"
         inkscape:connector-curvature="0" />
      <path
         inkscape:connector-curvature="0"
         style="fill:#00a0a0;fill-opacity:1;stroke-width:0.04020244"
         d="m 25.679517,131.87379 c 0,0.40203 0.04824,0.85229 0.144728,1.22215 h 0.385944 v -0.85229 c -0.144729,-0.0643 -0.241215,-0.19297 -0.241215,-0.35378 0,-0.20905 0.176891,-0.38594 0.385943,-0.38594 0.209052,0 0.385943,0.17689 0.385943,0.38594 0,0.16081 -0.09649,0.30554 -0.241214,0.35378 v 0.85229 h 0.385944 c 0.09648,-0.38594 0.144728,-0.82012 0.144728,-1.22215 0,-0.27338 -0.01608,-0.48243 -0.06432,-0.65932 h -1.206073 c -0.04824,0.17689 -0.08041,0.40202 -0.08041,0.65932 z"
         id="path1370" />
      <path
         inkscape:connector-curvature="0"
         id="path1372"
         d="m 26.354918,128.04636 c -0.594996,0 -1.093389,0.35394 -1.093389,1.59218 0,0.51459 0.0802,1.09344 0.224925,1.57587 h 1.736927 c 0.144729,-0.48243 0.224925,-1.06128 0.224925,-1.57587 0,-1.23824 -0.48231,-1.59218 -1.093388,-1.59218 z m 0,0.85249 a 0.36986246,0.36986246 0 0 1 0.370017,0.36968 0.36986246,0.36986246 0 0 1 -0.370017,0.37001 0.36986246,0.36986246 0 0 1 -0.370017,-0.37001 0.36986246,0.36986246 0 0 1 0.370017,-0.36968 z"
         style="fill:#ffffff;stroke-width:0.04020244" />
    </g>
  </g>
</svg>
