<?xml version="1.0" encoding="UTF-8" standalone="no"?>
<!-- Created with Inkscape (http://www.inkscape.org/) -->

<svg
   xmlns:dc="http://purl.org/dc/elements/1.1/"
   xmlns:cc="http://creativecommons.org/ns#"
   xmlns:rdf="http://www.w3.org/1999/02/22-rdf-syntax-ns#"
   xmlns:svg="http://www.w3.org/2000/svg"
   xmlns="http://www.w3.org/2000/svg"
   xmlns:sodipodi="http://sodipodi.sourceforge.net/DTD/sodipodi-0.dtd"
   xmlns:inkscape="http://www.inkscape.org/namespaces/inkscape"
   width="42mm"
   height="42mm"
   viewBox="0 0 42 42"
   version="1.1"
   id="svg8"
   sodipodi:docname="logo-square.svg"
   inkscape:version="0.92.4 (5da689c313, 2019-01-14)">
  <defs
     id="defs2" />
  <sodipodi:namedview
     id="base"
     pagecolor="#ffffff"
     bordercolor="#666666"
     borderopacity="1.0"
     inkscape:pageopacity="0.0"
     inkscape:pageshadow="2"
     inkscape:zoom="4.559255"
     inkscape:cx="97.725836"
     inkscape:cy="41.783115"
     inkscape:document-units="mm"
     inkscape:current-layer="layer1"
     showgrid="false"
     inkscape:snap-bbox="true"
     inkscape:bbox-paths="true"
     inkscape:bbox-nodes="true"
     inkscape:snap-bbox-edge-midpoints="true"
     inkscape:snap-bbox-midpoints="true"
     inkscape:snap-intersection-paths="true"
     inkscape:object-paths="true"
     inkscape:snap-midpoints="false"
     inkscape:window-width="3840"
     inkscape:window-height="2160"
     inkscape:window-x="14096"
     inkscape:window-y="766"
     inkscape:window-maximized="0"
     inkscape:snap-global="true"
     fit-margin-top="0"
     fit-margin-left="0"
     fit-margin-right="0"
     fit-margin-bottom="0">
    <inkscape:grid
       type="xygrid"
       id="grid4575"
       originx="56.631698"
       originy="-146.46755" />
  </sodipodi:namedview>
  <metadata
     id="metadata5">
    <rdf:RDF>
      <cc:Work
         rdf:about="">
        <dc:format>image/svg+xml</dc:format>
        <dc:type
           rdf:resource="http://purl.org/dc/dcmitype/StillImage" />
        <dc:title />
      </cc:Work>
    </rdf:RDF>
  </metadata>
  <g
     inkscape:label="Layer 1"
     inkscape:groupmode="layer"
     id="layer1"
     transform="translate(56.631699,-108.53244)">
    <rect
       style="fill:#282828;fill-opacity:1;stroke-width:0.27975342"
       id="rect822"
       width="42"
       height="42"
       x="7.0875931"
       y="108.88063" />
    <g
       id="g828"
       transform="translate(-58.826519,-9.5353498)">
      <path
         sodipodi:nodetypes="ccccccccccccc"
         inkscape:connector-curvature="0"
         id="path4605"
         d="m 8.6816299,121.86126 -2.93e-4,15.875 h 2.7506261 v -6.61458 h 6.926876 v 6.61458 h 2.749792 v -15.875 h -2.75 l 2.08e-4,6.61459 h -6.926876 l -4.17e-4,-6.61459 z"
         style="fill:#ffffff;fill-opacity:1;stroke:none;stroke-width:0.26458332px;stroke-linecap:butt;stroke-linejoin:miter;stroke-opacity:1" />
      <path
         style="fill:#ffffff;fill-opacity:1;stroke:none;stroke-width:0.26458332px;stroke-linecap:butt;stroke-linejoin:miter;stroke-opacity:1"
         d="m 28.534179,137.73626 h 2.749792 v -15.875 h -2.75 z"
         id="path4609"
         inkscape:connector-curvature="0"
         sodipodi:nodetypes="ccccc" />
      <path
         inkscape:connector-curvature="0"
         id="path4573"
         d="m 29.90897,140.27426 a 7.9999998,7.9999998 0 0 0 -8.000028,8.00003 7.9999998,7.9999998 0 0 0 8.000028,8.00003 7.9999998,7.9999998 0 0 0 8.000029,-8.00003 7.9999998,7.9999998 0 0 0 -8.000029,-8.00003 z m 0,2.75022 a 5.25,5.25 0 0 1 5.249809,5.24981 5.25,5.25 0 0 1 -5.249809,5.24981 5.25,5.25 0 0 1 -5.24981,-5.24981 5.25,5.25 0 0 1 5.24981,-5.24981 z"
         style="fill:#ffffff;stroke-width:0.12523547" />
      <path
         id="path4623"
         d="m 15.080768,140.33646 -3.849895,5.3e-4 H 8.48117 8.480641 v 2.7497 h 5.29e-4 v 4.49998 h -5.29e-4 v 2.74971 h 5.29e-4 v 5.87561 h 2.749703 v -5.87561 h 1.403015 l 4.886523,5.87561 h 3.788916 l -5.015714,-6.03116 a 5,5 0 0 0 3.786849,-4.84415 5,5 0 0 0 -4.999694,-5.00021 z m -3.849895,2.75022 h 3.849895 a 2.2499999,2.2499999 0 0 1 2.24999,2.24999 2.2499999,2.2499999 0 0 1 -2.24999,2.24999 v -5.3e-4 l -3.849895,5.3e-4 z"
         style="fill:#ffffff;fill-opacity:1;stroke:none;stroke-width:0.26458332px;stroke-linecap:butt;stroke-linejoin:miter;stroke-opacity:1"
         inkscape:connector-curvature="0" />
    </g>
    <path
       style="fill:#282828;fill-opacity:1;stroke:none;stroke-width:0.26458332px;stroke-linecap:butt;stroke-linejoin:miter;stroke-opacity:1"
       d="m -35.69482,179.95888 2.749792,4e-4 v -15.8754 h -2.75 z"
       id="path193"
       inkscape:connector-curvature="0"
       sodipodi:nodetypes="ccccc" />
    <path
       id="path195"
       d="m -29.094974,164.08352 -6.600113,5.3e-4 v 2.7497 h 6.600113 a 2.2499999,2.2499999 0 0 1 2.24999,2.24999 2.2499999,2.2499999 0 0 1 -2.24999,2.25 v -5.3e-4 l -6.600113,5.3e-4 v 2.7497 h 6.600113 a 5,5 0 0 0 4.999694,-4.9997 5,5 0 0 0 -4.999694,-5.00021 z"
       style="fill:#282828;fill-opacity:1;stroke:none;stroke-width:0.17059942px;stroke-linecap:butt;stroke-linejoin:miter;stroke-opacity:1"
       inkscape:connector-curvature="0" />
    <path
       sodipodi:nodetypes="ccccc"
       inkscape:connector-curvature="0"
       id="path197"
       d="m -26.655706,179.95928 h 3.789148 l -5.820833,-7 h -3.789435 z"
       style="fill:#282828;fill-opacity:1;stroke:none;stroke-width:0.20624121px;stroke-linecap:butt;stroke-linejoin:miter;stroke-opacity:1" />
  </g>
</svg>
