<?xml version="1.0" encoding="UTF-8" standalone="no"?>
<!-- Created with Inkscape (http://www.inkscape.org/) -->

<svg
   xmlns:dc="http://purl.org/dc/elements/1.1/"
   xmlns:cc="http://creativecommons.org/ns#"
   xmlns:rdf="http://www.w3.org/1999/02/22-rdf-syntax-ns#"
   xmlns:svg="http://www.w3.org/2000/svg"
   xmlns="http://www.w3.org/2000/svg"
   xmlns:sodipodi="http://sodipodi.sourceforge.net/DTD/sodipodi-0.dtd"
   xmlns:inkscape="http://www.inkscape.org/namespaces/inkscape"
   width="50mm"
   height="50mm"
   viewBox="0 0 50 50"
   version="1.1"
   id="svg8"
   sodipodi:docname="logo.svg"
   inkscape:version="0.92.3 (2405546, 2018-03-11)">
  <defs
     id="defs2" />
  <sodipodi:namedview
     id="base"
     pagecolor="#ffffff"
     bordercolor="#666666"
     borderopacity="1.0"
     inkscape:pageopacity="0.0"
     inkscape:pageshadow="2"
     inkscape:zoom="1.4"
     inkscape:cx="34.329323"
     inkscape:cy="40.171956"
     inkscape:document-units="mm"
     inkscape:current-layer="layer1"
     showgrid="false"
     inkscape:snap-bbox="true"
     inkscape:bbox-paths="true"
     inkscape:bbox-nodes="true"
     inkscape:snap-bbox-edge-midpoints="true"
     inkscape:snap-bbox-midpoints="true"
     inkscape:snap-intersection-paths="true"
     inkscape:object-paths="true"
     inkscape:snap-midpoints="false"
     inkscape:window-width="3440"
     inkscape:window-height="1389"
     inkscape:window-x="3840"
     inkscape:window-y="25"
     inkscape:window-maximized="1"
     inkscape:snap-global="true"
     fit-margin-top="0"
     fit-margin-left="0"
     fit-margin-right="0"
     fit-margin-bottom="0">
    <inkscape:grid
       type="xygrid"
       id="grid4575"
       originx="-2.9190166"
       originy="-131.94566" />
  </sodipodi:namedview>
  <metadata
     id="metadata5">
    <rdf:RDF>
      <cc:Work
         rdf:about="">
        <dc:format>image/svg+xml</dc:format>
        <dc:type
           rdf:resource="http://purl.org/dc/dcmitype/StillImage" />
        <dc:title />
      </cc:Work>
    </rdf:RDF>
  </metadata>
  <g
     inkscape:label="Layer 1"
     inkscape:groupmode="layer"
     id="layer1"
     transform="translate(-2.9190165,-115.05434)">
    <g
       id="g3912"
       style="fill:#ffffff"
       transform="translate(0.3189585,-16.99997)">
      <path
         inkscape:connector-curvature="0"
         id="path4573"
         d="M 44.600029,149.05428 A 7.9999998,7.9999998 0 0 0 36.6,157.05431 a 7.9999998,7.9999998 0 0 0 8.000029,8.00003 7.9999998,7.9999998 0 0 0 8.000029,-8.00003 7.9999998,7.9999998 0 0 0 -8.000029,-8.00003 z m 0,2.75022 a 5.25,5.25 0 0 1 5.249809,5.24981 5.25,5.25 0 0 1 -5.249809,5.24981 5.25,5.25 0 0 1 -5.24981,-5.24981 5.25,5.25 0 0 1 5.24981,-5.24981 z"
         style="fill:#ffffff;stroke-width:0.12523547" />
      <path
         sodipodi:nodetypes="ccccccccccccc"
         inkscape:connector-curvature="0"
         id="path4605"
         d="m 2.9193095,149.11681 -2.93e-4,15.875 h 2.750626 v -6.61458 h 6.9268755 v 6.61458 h 2.749792 v -15.875 h -2.75 l 2.08e-4,6.61459 H 5.6696425 l -4.17e-4,-6.61459 z"
         style="fill:#ffffff;fill-opacity:1;stroke:none;stroke-width:0.26458332px;stroke-linecap:butt;stroke-linejoin:miter;stroke-opacity:1" />
      <path
         style="fill:#ffffff;fill-opacity:1;stroke:none;stroke-width:0.26458332px;stroke-linecap:butt;stroke-linejoin:miter;stroke-opacity:1"
         d="m 17.884333,164.99181 h 2.749792 v -15.875 h -2.75 z"
         id="path4609"
         inkscape:connector-curvature="0"
         sodipodi:nodetypes="ccccc" />
      <path
         id="path4623"
         transform="scale(0.26458333)"
         d="m 112.52344,563.58984 -14.550784,0.002 h -10.392578 -0.002 v 10.39258 h 0.002 v 17.00781 h -0.002 v 10.39258 h 0.002 v 22.20703 h 10.392578 v -22.20703 h 5.302734 l 18.46875,22.20703 h 14.32031 l -18.95703,-22.79492 a 18.897638,18.897638 0 0 0 14.3125,-18.3086 18.897638,18.897638 0 0 0 -18.89648,-18.89844 z m -14.550784,10.39454 h 14.550784 a 8.5039366,8.5039366 0 0 1 8.5039,8.5039 8.5039366,8.5039366 0 0 1 -8.5039,8.50391 v -0.002 l -14.550784,0.002 z"
         style="fill:#ffffff;fill-opacity:1;stroke:none;stroke-width:0.99999994px;stroke-linecap:butt;stroke-linejoin:miter;stroke-opacity:1"
         inkscape:connector-curvature="0" />
    </g>
    <g
       transform="translate(-98.055105,-3.3667205)"
       style="fill:#000000"
       id="g199">
      <path
         sodipodi:nodetypes="ccccc"
         inkscape:connector-curvature="0"
         id="path193"
         d="m 62.360285,183.3256 2.749792,4e-4 v -15.8754 h -2.75 z"
         style="fill:#000000;fill-opacity:1;stroke:none;stroke-width:0.26458332px;stroke-linecap:butt;stroke-linejoin:miter;stroke-opacity:1" />
      <path
         inkscape:connector-curvature="0"
         style="fill:#000000;fill-opacity:1;stroke:none;stroke-width:0.64478523px;stroke-linecap:butt;stroke-linejoin:miter;stroke-opacity:1"
         d="m 260.63672,632.88281 -24.94531,0.002 v 10.39257 h 24.94531 a 8.5039368,8.5039368 0 0 1 8.5039,8.50391 8.5039368,8.5039368 0 0 1 -8.5039,8.50391 v -0.002 l -24.94531,0.002 v 10.39257 h 24.94531 a 18.897638,18.897638 0 0 0 18.89648,-18.89648 18.897638,18.897638 0 0 0 -18.89648,-18.89844 z"
         transform="scale(0.26458333)"
         id="path195" />
      <path
         style="fill:#000000;fill-opacity:1;stroke:none;stroke-width:0.20624121px;stroke-linecap:butt;stroke-linejoin:miter;stroke-opacity:1"
         d="m 71.399399,183.326 h 3.789148 l -5.820833,-7 h -3.789435 z"
         id="path197"
         inkscape:connector-curvature="0"
         sodipodi:nodetypes="ccccc" />
    </g>
  </g>
</svg>
