<svg width="109.00833000000002" height="28.574999" xmlns="http://www.w3.org/2000/svg">

 <metadata id="metadata5">image/svg+xml</metadata>
 <g>
  <title>background</title>
  <rect fill="#282828" id="canvas_background" height="30.575" width="111.00833" y="-1" x="-1"/>
 </g>
 <g>
  <title>Layer 1</title>
  <g id="layer1">
   <path fill="#282828" stroke-width="0.26458px" id="path193" d="m20.93688,58.00143l2.74979,0.0004l0,-15.8754l-2.75,0l0.00021,15.875z"/>
   <path fill="#282828" stroke-width="0.1706px" d="m27.53673,42.12607l-6.60012,0.00053l0,2.7497l6.60012,0a2.25,2.25 0 0 1 2.24999,2.24999a2.25,2.25 0 0 1 -2.24999,2.25l0,-0.00053l-6.60012,0.00053l0,2.7497l6.60012,0a5,5 0 0 0 4.99969,-4.9997a5,5 0 0 0 -4.99969,-5.00021l0,-0.00001z" id="path195"/>
   <path fill="#282828" stroke-width="0.20624px" d="m29.97599,58.00183l3.78915,0l-5.82083,-7l-3.78944,0l5.82112,7z" id="path197"/>
   <g transform="matrix(1.12256, 0, 0, 1.12256, 6.94093, -18.4497)" id="g1330">
    <path fill="#ffffff" stroke-width="0.16001px" d="m-2.26013,18.78459l-0.00018,9.60059l1.66347,0l0,-4.00024l4.18911,0l0,4.00024l1.66297,0l0,-9.60059l-1.66309,0l0.00012,4.00025l-4.18911,0l-0.00025,-4.00025l-1.66304,0z" id="path4605"/>
    <path fill="#ffffff" stroke-width="0.16px" id="path4609" d="m9.74593,28.38518l1.66297,0l0,-9.59999l-1.66309,0l0.00012,9.59999z"/>
    <path fill="#ffffff" stroke-width="0.07574" d="m10.57735,29.92007a4.8381,4.8381 0 0 0 -4.83811,4.83811a4.8381,4.8381 0 0 0 4.83811,4.83811a4.8381,4.8381 0 0 0 4.83812,-4.83811a4.8381,4.8381 0 0 0 -4.83812,-4.83811zm0,1.66323a3.175,3.175 0 0 1 3.17489,3.17488a3.175,3.175 0 0 1 -3.17489,3.17489a3.175,3.175 0 0 1 -3.17488,-3.17489a3.175,3.175 0 0 1 3.17488,-3.17488z" id="path4573"/>
    <path fill="#ffffff" stroke-width="0.16001px" d="m1.60982,29.95768l-2.32827,0.00032l-1.66291,0l-0.00032,0l0,1.66292l0.00032,0l0,2.72141l-0.00032,0l0,1.66292l0.00032,0l0,3.55335l1.66291,0l0,-3.55335l0.84849,0l2.95518,3.55335l2.2914,0l-3.03332,-3.64742a3.02381,3.02381 0 0 0 2.29015,-2.92955a3.02381,3.02381 0 0 0 -3.02363,-3.02394l0,-0.00001zm-2.32827,1.66323l2.32827,0a1.36071,1.36071 0 0 1 1.36071,1.36071a1.36071,1.36071 0 0 1 -1.36071,1.36071l0,-0.00032l-2.32827,0.00032l0,-2.72142z" id="path4623"/>
    <g font-style="normal" font-weight="600" font-size="6.4711px" font-family="Raleway" fill="#ffffff" stroke-width="0.26963" id="text955-3">
     <path fill="#00a0a0" stroke-width="0.26963" id="path1376" d="m23.19426,18.78523l0,4.59448l-0.73123,0l0,-2.02545l-2.31666,0l0,2.02545l-0.72476,0l0,-4.59448l0.72476,0l0,1.92192l2.31666,0l0,-1.92192l0.73123,0z"/>
     <path stroke-width="0.26963" id="path1378" d="m27.11283,23.10793q0.46592,0 0.77006,-0.17472q0.31061,-0.17472 0.48533,-0.45945q0.18119,-0.28473 0.25237,-0.64711q0.07765,-0.36238 0.07765,-0.73124l0,-2.31018l0.33003,0l0,2.31018q0,0.45945 -0.10354,0.88007q-0.09707,0.42063 -0.32355,0.74418q-0.22649,0.31708 -0.58887,0.50475q-0.36238,0.18766 -0.89301,0.18766q-0.55005,0 -0.9189,-0.19413q-0.36885,-0.20061 -0.59534,-0.52416q-0.22002,-0.33003 -0.31709,-0.74418q-0.09059,-0.41415 -0.09059,-0.85419l0,-2.31018l0.33003,0l0,2.31018q0,0.3818 0.07118,0.74418q0.07765,0.36238 0.25884,0.64711q0.18767,0.27826 0.49181,0.45298q0.30414,0.16825 0.76359,0.16825z"/>
     <path stroke-width="0.26963" id="path1380" d="m35.28079,23.37971l0,-3.97325l-1.81191,3.09965l-0.20708,0l-1.81191,-3.09965l0,3.97325l-0.33002,0l0,-4.59448l0.33002,0l1.91545,3.28732l1.91544,-3.28732l0.33003,0l0,4.59448l-0.33002,0z"/>
     <path stroke-width="0.26963" id="path1382" d="m39.22311,18.78523l0.28473,0l1.94133,4.59448l-0.34944,0l-0.64064,-1.51423l-2.1937,0l-0.64064,1.51423l-0.35591,0l1.95427,-4.59448zm1.14539,2.80846l-1.00302,-2.40725l-1.02244,2.40725l2.02546,0z"/>
     <path stroke-width="0.26963" id="path1384" d="m43.44319,19.40646l0,3.97325l-0.33002,0l0,-4.59448l0.25237,0l3.22261,4.04444l0,-4.04444l0.33002,0l0,4.59448l-0.30414,0l-3.17084,-3.97325z"/>
     <path fill="#00a0a0" stroke-width="0.26963" id="path1386" d="m19.42161,31.46859l0,-4.59448l0.72476,0l0,4.59448l-0.72476,0z"/>
     <path stroke-width="0.26963" id="path1388" d="m22.55262,27.49533l0,3.97326l-0.33003,0l0,-4.59448l0.25238,0l3.22261,4.04444l0,-4.04444l0.33002,0l0,4.59448l-0.30414,0l-3.17084,-3.97326z"/>
     <path stroke-width="0.26963" id="path1390" d="m31.39731,27.17178l-1.68248,0l0,4.29681l-0.33003,0l0,-4.29681l-1.68248,0l0,-0.29767l3.695,0l-0.00001,0.29767z"/>
     <path stroke-width="0.26963" id="path1392" d="m36.12659,31.17092l0,0.29767l-3.06083,0l0,-4.59448l3.00259,0l0,0.29767l-2.67256,0l0,1.80544l2.33606,0l0,0.28473l-2.33606,0l0,1.90897l2.7308,0z"/>
     <path stroke-width="0.26963" id="path1394" d="m37.98179,31.46859l0,-4.59448l1.90897,0q0.2912,0 0.5371,0.12295q0.2459,0.12295 0.42062,0.33003q0.1812,0.2006 0.27826,0.45944q0.10354,0.25238 0.10354,0.51122q0,0.25237 -0.07765,0.49181q-0.07766,0.23295 -0.22002,0.42062q-0.14237,0.18766 -0.34297,0.31061q-0.2006,0.12295 -0.44003,0.16178l1.14538,1.78602l-0.38179,0l-1.11303,-1.73425l-1.48836,0l0,1.73425l-0.33002,0zm0.33002,-2.0384l1.61131,0q0.22001,0 0.40121,-0.0971q0.18119,-0.0971 0.31061,-0.25238q0.12942,-0.16177 0.19413,-0.36238q0.07118,-0.20707 0.07118,-0.42062q0,-0.22002 -0.08412,-0.42062q-0.07765,-0.20708 -0.22002,-0.36238q-0.13589,-0.15531 -0.32355,-0.2459q-0.18119,-0.0971 -0.39474,-0.0971l-1.56601,0l0,2.25848z"/>
     <path stroke-width="0.26963" id="path1396" d="m44.50517,26.87411l0.28473,0l1.94133,4.59448l-0.34944,0l-0.64064,-1.51424l-2.1937,0l-0.64064,1.51424l-0.35591,0l1.95427,-4.59448zm1.14539,2.80846l-1.00302,-2.40725l-1.02244,2.40725l2.02546,0z"/>
     <path stroke-width="0.26963" id="path1398" d="m47.91384,29.13899q0,-0.41415 0.14236,-0.82183q0.14884,-0.41415 0.42709,-0.7377q0.27826,-0.32356 0.67947,-0.52416q0.40768,-0.20708 0.92537,-0.20708q0.61475,0 1.04832,0.28473q0.43356,0.27826 0.64711,0.7183l-0.27179,0.1553q-0.12295,-0.23943 -0.2912,-0.40121q-0.16178,-0.16177 -0.35591,-0.25884q-0.18766,-0.10354 -0.39474,-0.14884q-0.20707,-0.0453 -0.40768,-0.0453q-0.44003,0 -0.77653,0.18119q-0.3365,0.17472 -0.56946,0.45945q-0.23296,0.28472 -0.35591,0.64711q-0.11648,0.35591 -0.11648,0.71829q0,0.40768 0.14237,0.77653q0.14236,0.36885 0.38826,0.65358q0.24591,0.27826 0.5824,0.44651q0.3365,0.16825 0.72477,0.16825q0.20707,0 0.42709,-0.0518q0.22002,-0.0518 0.42062,-0.16178q0.20061,-0.11001 0.37533,-0.27826q0.17472,-0.17472 0.2912,-0.40768l0.28472,0.1359q-0.11648,0.25884 -0.31708,0.45944q-0.2006,0.20061 -0.44651,0.3365q-0.2459,0.1359 -0.52416,0.20708q-0.27178,0.0647 -0.5371,0.0647q-0.47239,0 -0.86713,-0.20708q-0.38826,-0.20707 -0.67299,-0.5371q-0.28473,-0.3365 -0.44651,-0.75712q-0.1553,-0.42709 -0.1553,-0.86713l0,0.00005z"/>
     <path stroke-width="0.26963" id="path1400" d="m56.81161,27.17178l-1.68248,0l0,4.29681l-0.33003,0l0,-4.29681l-1.68249,0l0,-0.29767l3.695,0l0,0.29767z"/>
     <path stroke-width="0.26963" id="path1402" d="m58.48006,31.46859l0,-4.59448l0.33002,0l0,4.59448l-0.33002,0z"/>
     <path stroke-width="0.26963" id="path1404" d="m62.80074,31.50095q-0.47886,0 -0.8736,-0.20061q-0.39473,-0.2006 -0.67946,-0.52416q-0.28473,-0.32355 -0.44004,-0.74417q-0.1553,-0.42062 -0.1553,-0.86066q0,-0.45945 0.16177,-0.88007q0.16825,-0.42062 0.45298,-0.74418q0.2912,-0.32355 0.68594,-0.51121q0.39473,-0.19414 0.85418,-0.19414q0.47887,0 0.8736,0.20708q0.40121,0.2006 0.67947,0.53063q0.28473,0.33003 0.44003,0.75065q0.15531,0.41415 0.15531,0.84124q0,0.46592 -0.16825,0.88654q-0.16178,0.42062 -0.45298,0.74418q-0.28473,0.31708 -0.67946,0.51122q-0.39474,0.18766 -0.85419,0.18766zm-1.81838,-2.3296q0,0.39474 0.12942,0.76359q0.1359,0.36238 0.37533,0.64711q0.2459,0.27826 0.5824,0.44651q0.3365,0.16825 0.7377,0.16825q0.41415,0 0.74418,-0.17472q0.3365,-0.17472 0.56946,-0.45945q0.23943,-0.2912 0.36885,-0.65358q0.12942,-0.36239 0.12942,-0.73771q0,-0.39474 -0.13589,-0.75712q-0.13589,-0.36885 -0.3818,-0.64711q-0.23943,-0.28473 -0.56945,-0.45298q-0.33003,-0.16824 -0.72477,-0.16824q-0.41415,0 -0.75064,0.17471q-0.3365,0.17472 -0.57593,0.46592q-0.23943,0.28473 -0.36886,0.64711q-0.12942,0.36239 -0.12942,0.73771z"/>
     <path stroke-width="0.26963" id="path1406" d="m67.13811,27.49533l0,3.97326l-0.33003,0l0,-4.59448l0.25238,0l3.22261,4.04444l0,-4.04444l0.33002,0l0,4.59448l-0.30414,0l-3.17084,-3.97326z"/>
     <path fill="#00a0a0" stroke-width="0.26963" id="path1408" d="m78.55943,31.46859l-0.58887,-0.61475q-0.26532,0.31061 -0.62123,0.49827q-0.35591,0.18119 -0.78947,0.18119q-0.28473,0 -0.55005,-0.0841q-0.25884,-0.0841 -0.45944,-0.23943q-0.20061,-0.16178 -0.31709,-0.3818q-0.11648,-0.22649 -0.11648,-0.51121q0,-0.23296 0.07765,-0.4271q0.08412,-0.2006 0.22002,-0.36238q0.14236,-0.16825 0.32356,-0.31708q0.18766,-0.14884 0.39473,-0.28473q-0.18119,-0.19413 -0.31061,-0.34944q-0.12295,-0.16178 -0.2006,-0.2912q-0.07765,-0.12942 -0.11648,-0.2459q-0.03236,-0.12295 -0.03236,-0.23943q0,-0.20061 0.08413,-0.37533q0.09059,-0.18119 0.23942,-0.31708q0.14884,-0.13589 0.35592,-0.21355q0.20707,-0.0776 0.4465,-0.0776q0.22002,0 0.40768,0.0712q0.18766,0.0647 0.32356,0.18119q0.14236,0.11648 0.22001,0.27826q0.07765,0.16178 0.07765,0.34944q0,0.19413 -0.08413,0.36885q-0.08412,0.16825 -0.23296,0.32356q-0.14236,0.14883 -0.33649,0.2912q-0.18767,0.13589 -0.39474,0.27825l1.38482,1.43659q0.14236,-0.25237 0.22001,-0.55005q0.07765,-0.30414 0.07765,-0.62769l0.28473,0q-0.01294,0.77653 -0.38827,1.38481l0.83478,0.86713l-0.43355,-0.00009zm-1.96075,-0.2006q0.36886,0 0.66653,-0.16178q0.29767,-0.16825 0.51769,-0.44651l-1.46247,-1.53365q-0.18766,0.12942 -0.34944,0.25885q-0.15531,0.12942 -0.27826,0.27825q-0.12295,0.14237 -0.19413,0.31062q-0.06471,0.16177 -0.06471,0.35591q0,0.23296 0.10353,0.40768q0.10354,0.17472 0.26532,0.29767q0.16825,0.11648 0.37532,0.17472q0.21355,0.0582 0.42062,0.0582l0,0.00004zm-0.82183,-3.47498q0,0.0841 0.01941,0.16824q0.02588,0.0841 0.0906,0.19414q0.07118,0.11001 0.18767,0.25884q0.12295,0.14237 0.31061,0.34297q0.42709,-0.27826 0.68594,-0.51122q0.25884,-0.23943 0.25884,-0.5371q0,-0.27179 -0.20708,-0.44651q-0.20707,-0.18119 -0.53063,-0.18119q-0.17472,0 -0.32355,0.0582q-0.14884,0.0582 -0.25884,0.15531q-0.11001,0.0971 -0.17472,0.22649q-0.05824,0.12942 -0.05824,0.27179l-0.00001,0.00004z"/>
     <path fill="#00a0a0" stroke-width="0.26963" id="path1410" d="m19.42161,39.55747l0,-4.59448l1.99957,0q0.31061,0 0.56946,0.12942q0.26531,0.12942 0.45297,0.34297q0.18766,0.20707 0.2912,0.47886q0.11001,0.26531 0.11001,0.54357q0,0.23296 -0.06471,0.44651q-0.06471,0.21354 -0.18119,0.39474q-0.11648,0.18119 -0.28473,0.31708q-0.16825,0.12942 -0.36885,0.19413l1.08067,1.7472l-0.82183,0l-0.99655,-1.59836l-1.06126,0l0,1.59836l-0.72476,0zm0.72476,-2.239l1.26834,0q0.1553,0 0.27826,-0.0647q0.12942,-0.0712 0.22001,-0.18766q0.0906,-0.12296 0.14237,-0.27826q0.05177,-0.15531 0.05177,-0.33003q0,-0.17472 -0.06471,-0.33002q-0.05824,-0.15531 -0.16178,-0.27179q-0.09707,-0.11648 -0.23296,-0.18119q-0.12942,-0.0712 -0.27179,-0.0712l-1.22951,0l0,1.71485z"/>
     <path fill="#00a0a0" stroke-width="0.26963" id="path1412" d="m26.56258,39.58983q-0.4918,0 -0.89948,-0.19414q-0.40121,-0.2006 -0.69241,-0.52416q-0.2912,-0.33002 -0.45298,-0.75064q-0.1553,-0.42063 -0.1553,-0.86066q0,-0.45945 0.16825,-0.88007q0.16824,-0.42062 0.45944,-0.74418q0.29767,-0.32355 0.69888,-0.51122q0.40768,-0.19413 0.88654,-0.19413q0.49181,0 0.89302,0.20708q0.40768,0.2006 0.6924,0.53063q0.2912,0.33002 0.44651,0.75065q0.16178,0.41415 0.16178,0.84771q0,0.45945 -0.16825,0.88007q-0.16178,0.42062 -0.45945,0.74418q-0.29767,0.31708 -0.70535,0.51121q-0.40121,0.18767 -0.8736,0.18767zm-1.46247,-2.3296q0,0.32355 0.10354,0.6277q0.10354,0.30414 0.2912,0.5371q0.19413,0.23296 0.46592,0.37532q0.27179,0.13589 0.60828,0.13589q0.34944,0 0.61476,-0.14236q0.27178,-0.14884 0.45945,-0.38827q0.18766,-0.23943 0.28472,-0.5371q0.09707,-0.29767 0.09707,-0.60828q0,-0.33003 -0.10353,-0.6277q-0.10354,-0.30414 -0.29767,-0.53063q-0.18767,-0.23296 -0.45945,-0.36885q-0.26532,-0.14237 -0.59534,-0.14237q-0.34944,0 -0.62123,0.14884q-0.27179,0.14236 -0.45945,0.37532q-0.18766,0.23296 -0.2912,0.5371q-0.09707,0.29768 -0.09707,0.60829z"/>
     <path fill="#ffffff" stroke-width="0.26963" id="path1414" d="m33.94814,38.36679q0,0.25237 -0.09707,0.47239q-0.09707,0.21354 -0.26531,0.37532q-0.16825,0.16178 -0.39474,0.25237q-0.22649,0.0906 -0.47886,0.0906l-2.14841,0l0,-4.59448l2.14194,0q0.23943,0 0.43356,0.10353q0.19414,0.10354 0.33003,0.27179q0.13589,0.16178 0.20707,0.37533q0.07765,0.20707 0.07765,0.42062q0,0.34944 -0.17472,0.64064q-0.17472,0.2912 -0.48533,0.42709q0.39474,0.11648 0.62123,0.44003q0.23296,0.31709 0.23296,0.72477zm-0.33002,-0.0453q0,-0.18119 -0.06471,-0.34944q-0.06471,-0.17472 -0.1812,-0.30414q-0.11647,-0.1359 -0.27825,-0.21355q-0.15531,-0.0777 -0.3365,-0.0777l-1.86368,0l0,1.88309l1.81838,0q0.19414,0 0.35591,-0.0777q0.16825,-0.0777 0.28473,-0.20708q0.12295,-0.13589 0.19413,-0.30414q0.07118,-0.16825 0.07118,-0.34944l0.00001,0.0001zm-2.72434,-3.06083l0,1.83779l1.68249,0q0.18766,0 0.34297,-0.0777q0.1553,-0.0777 0.26531,-0.20061q0.11648,-0.12942 0.18119,-0.29767q0.06471,-0.16825 0.06471,-0.34297q0,-0.18766 -0.06471,-0.34944q-0.05824,-0.16824 -0.16825,-0.29119q-0.10353,-0.12943 -0.25237,-0.20061q-0.14883,-0.0777 -0.33003,-0.0777l-1.72131,0.0001z"/>
     <path fill="#ffffff" stroke-width="0.26963" id="path1416" d="m37.63972,39.58983q-0.47886,0 -0.8736,-0.20061q-0.39474,-0.2006 -0.67947,-0.52416q-0.28473,-0.32355 -0.44003,-0.74417q-0.15531,-0.42063 -0.15531,-0.86066q0,-0.45945 0.16178,-0.88007q0.16825,-0.42062 0.45298,-0.74418q0.2912,-0.32355 0.68593,-0.51122q0.39474,-0.19413 0.85419,-0.19413q0.47886,0 0.8736,0.20708q0.40121,0.2006 0.67946,0.53063q0.28473,0.33002 0.44004,0.75065q0.1553,0.41415 0.1553,0.84124q0,0.46592 -0.16824,0.88654q-0.16178,0.42062 -0.45298,0.74418q-0.28473,0.31708 -0.67947,0.51121q-0.39473,0.18767 -0.85418,0.18767zm-1.81838,-2.3296q0,0.39474 0.12942,0.76359q0.13589,0.36238 0.37532,0.64711q0.2459,0.27826 0.5824,0.44651q0.3365,0.16824 0.73771,0.16824q0.41415,0 0.74417,-0.17472q0.3365,-0.17472 0.56946,-0.45944q0.23943,-0.2912 0.36885,-0.65359q0.12943,-0.36238 0.12943,-0.7377q0,-0.39474 -0.1359,-0.75712q-0.13589,-0.36885 -0.38179,-0.64711q-0.23943,-0.28473 -0.56946,-0.45298q-0.33002,-0.16825 -0.72476,-0.16825q-0.41415,0 -0.75065,0.17472q-0.3365,0.17472 -0.57593,0.46592q-0.23943,0.28473 -0.36885,0.64711q-0.12942,0.36238 -0.12942,0.73771z"/>
     <path fill="#ffffff" stroke-width="0.26963" id="path1418" d="m44.64186,35.26066l-1.68248,0l0,4.29681l-0.33003,0l0,-4.29681l-1.68249,0l0,-0.29767l3.695,0l0,0.29767z"/>
     <path fill="#ffffff" stroke-width="0.26963" id="path1420" d="m46.31031,39.55747l0,-4.59448l0.33002,0l0,4.59448l-0.33002,0z"/>
     <path fill="#ffffff" stroke-width="0.26963" id="path1422" d="m48.48259,37.22787q0,-0.41415 0.14236,-0.82183q0.14884,-0.41415 0.42709,-0.7377q0.27826,-0.32356 0.67947,-0.52416q0.40768,-0.20708 0.92537,-0.20708q0.61475,0 1.04832,0.28473q0.43356,0.27826 0.64711,0.71829l-0.27179,0.15531q-0.12295,-0.23943 -0.2912,-0.40121q-0.16178,-0.16178 -0.35591,-0.25884q-0.18766,-0.10354 -0.39474,-0.14884q-0.20707,-0.0453 -0.40768,-0.0453q-0.44003,0 -0.77653,0.1812q-0.3365,0.17472 -0.56946,0.45944q-0.23296,0.28473 -0.35591,0.64711q-0.11648,0.35591 -0.11648,0.7183q0,0.40768 0.14237,0.77653q0.14236,0.36885 0.38826,0.65358q0.2459,0.27826 0.5824,0.44651q0.3365,0.16824 0.72477,0.16824q0.20707,0 0.42709,-0.0518q0.22002,-0.0518 0.42062,-0.16178q0.2006,-0.11001 0.37532,-0.27826q0.17472,-0.17472 0.2912,-0.40768l0.28473,0.13589q-0.11648,0.25885 -0.31708,0.45945q-0.20061,0.20061 -0.44651,0.3365q-0.2459,0.13589 -0.52416,0.20708q-0.27178,0.0647 -0.5371,0.0647q-0.47239,0 -0.86713,-0.20708q-0.38826,-0.20707 -0.67299,-0.5371q-0.28473,-0.3365 -0.44651,-0.75712q-0.1553,-0.42709 -0.1553,-0.86713l0,0.00005z"/>
     <path fill="#ffffff" stroke-width="0.26963" id="path1424" d="m56.89382,35.72658q-0.44651,-0.49828 -1.26187,-0.49828q-0.67299,0 -0.98361,0.25885q-0.30414,0.25237 -0.30414,0.68593q0,0.22002 0.07766,0.36886q0.07765,0.14236 0.23943,0.2459q0.16824,0.10354 0.42062,0.17472q0.25237,0.0712 0.60828,0.14883q0.36885,0.0777 0.66653,0.17472q0.30414,0.0906 0.51121,0.23296q0.21355,0.14237 0.32356,0.34944q0.11648,0.20708 0.11648,0.51122q0,0.30414 -0.12295,0.53063q-0.11648,0.22649 -0.3365,0.38179q-0.21355,0.14884 -0.51769,0.22649q-0.29767,0.0777 -0.66652,0.0777q-1.07421,0 -1.81838,-0.68594l0.17472,-0.26532q0.2912,0.30415 0.71182,0.48534q0.42062,0.17472 0.94478,0.17472q0.60181,0 0.93831,-0.22002q0.34297,-0.22002 0.34297,-0.66652q0,-0.22649 -0.0906,-0.3818q-0.09059,-0.16178 -0.27178,-0.27826q-0.17472,-0.11648 -0.44651,-0.2006q-0.27179,-0.0841 -0.63417,-0.16178q-0.36885,-0.0777 -0.65358,-0.16178q-0.27826,-0.0906 -0.47239,-0.22001q-0.18766,-0.1359 -0.28473,-0.32356q-0.09707,-0.18766 -0.09707,-0.47239q0,-0.31061 0.11648,-0.55004q0.12296,-0.23943 0.3365,-0.40121q0.21355,-0.16825 0.51122,-0.25237q0.29767,-0.0841 0.66005,-0.0841q0.44651,0 0.79595,0.13589q0.34944,0.12943 0.63417,0.40121l-0.16825,0.25878z"/>
     <path fill="#ffffff" stroke-width="0.26963" id="path1426" d="m65.11214,38.83918q-0.66652,0.75065 -1.54659,0.75065q-0.46592,0 -0.86713,-0.20061q-0.39474,-0.2006 -0.67947,-0.53063q-0.28473,-0.33003 -0.4465,-0.75065q-0.16178,-0.42062 -0.16178,-0.85418q0,-0.45298 0.1553,-0.8736q0.16178,-0.42062 0.44004,-0.74418q0.28473,-0.32355 0.67299,-0.51122q0.38827,-0.19413 0.84772,-0.19413q0.34297,0 0.61475,0.0777q0.27826,0.0712 0.49181,0.20708q0.22001,0.12942 0.37532,0.31708q0.16178,0.1812 0.27179,0.40121l-0.27179,0.16178q-0.23296,-0.45298 -0.62122,-0.65358q-0.3818,-0.20708 -0.86713,-0.20708q-0.40768,0 -0.73771,0.17472q-0.33002,0.17472 -0.56298,0.45945q-0.23296,0.28473 -0.35591,0.64711q-0.12296,0.36238 -0.12296,0.74418q0,0.40768 0.14237,0.77653q0.14236,0.36238 0.38826,0.64064q0.25238,0.27826 0.58888,0.44651q0.33649,0.16177 0.72476,0.16177q0.42062,0 0.79594,-0.19413q0.3818,-0.19413 0.73124,-0.61475l0,-0.88655l-1.04185,0l0,-0.26531l1.32658,0l0,2.23253l-0.28473,0l0,-0.71834z"/>
     <path fill="#ffffff" stroke-width="0.26963" id="path1428" d="m67.32628,39.55747l0,-4.59448l1.90897,0q0.2912,0 0.5371,0.12295q0.24591,0.12295 0.42063,0.33002q0.18119,0.20061 0.27825,0.45945q0.10354,0.25238 0.10354,0.51122q0,0.25237 -0.07765,0.4918q-0.07765,0.23296 -0.22002,0.42063q-0.14236,0.18766 -0.34296,0.31061q-0.20061,0.12295 -0.44004,0.16178l1.14539,1.78602l-0.3818,0l-1.11303,-1.73426l-1.48835,0l0,1.73426l-0.33003,0zm0.33002,-2.0384l1.61131,0q0.22002,0 0.40121,-0.0971q0.18119,-0.0971 0.31061,-0.25238q0.12942,-0.16177 0.19413,-0.36238q0.07118,-0.20707 0.07118,-0.42062q0,-0.22002 -0.08412,-0.42062q-0.07765,-0.20708 -0.22001,-0.36238q-0.1359,-0.15531 -0.32356,-0.24591q-0.18119,-0.0971 -0.39474,-0.0971l-1.566,0l-0.00001,2.25849z"/>
     <path fill="#ffffff" stroke-width="0.26963" id="path1430" d="m74.31377,39.58983q-0.47887,0 -0.8736,-0.20061q-0.39474,-0.2006 -0.67947,-0.52416q-0.28473,-0.32355 -0.44003,-0.74417q-0.15531,-0.42063 -0.15531,-0.86066q0,-0.45945 0.16178,-0.88007q0.16825,-0.42062 0.45297,-0.74418q0.2912,-0.32355 0.68594,-0.51122q0.39474,-0.19413 0.85419,-0.19413q0.47886,0 0.8736,0.20708q0.4012,0.2006 0.67946,0.53063q0.28473,0.33002 0.44004,0.75065q0.1553,0.41415 0.1553,0.84124q0,0.46592 -0.16825,0.88654q-0.16177,0.42062 -0.45297,0.74418q-0.28473,0.31708 -0.67947,0.51121q-0.39474,0.18767 -0.85418,0.18767zm-1.81838,-2.3296q0,0.39474 0.12942,0.76359q0.13589,0.36238 0.37532,0.64711q0.2459,0.27826 0.5824,0.44651q0.3365,0.16824 0.73771,0.16824q0.41415,0 0.74417,-0.17472q0.3365,-0.17472 0.56946,-0.45944q0.23943,-0.2912 0.36885,-0.65359q0.12943,-0.36238 0.12943,-0.7377q0,-0.39474 -0.1359,-0.75712q-0.13589,-0.36885 -0.38179,-0.64711q-0.23943,-0.28473 -0.56946,-0.45298q-0.33003,-0.16825 -0.72476,-0.16825q-0.41415,0 -0.75065,0.17472q-0.3365,0.17472 -0.57593,0.46592q-0.23943,0.28473 -0.36885,0.64711q-0.12942,0.36238 -0.12942,0.73771z"/>
     <path fill="#ffffff" stroke-width="0.26963" id="path1432" d="m80.16537,39.28568q0.46592,0 0.77006,-0.17472q0.31062,-0.17472 0.48534,-0.45944q0.18119,-0.28473 0.25237,-0.64711q0.07765,-0.36239 0.07765,-0.73124l0,-2.31018l0.33003,0l0,2.31018q0,0.45945 -0.10354,0.88007q-0.09707,0.42062 -0.32356,0.74418q-0.22649,0.31708 -0.58887,0.50474q-0.36238,0.18767 -0.89301,0.18767q-0.55004,0 -0.9189,-0.19414q-0.36885,-0.2006 -0.59534,-0.52416q-0.22001,-0.33002 -0.31708,-0.74417q-0.0906,-0.41415 -0.0906,-0.85419l0,-2.31018l0.33002,0l0,2.31018q0,0.3818 0.07118,0.74418q0.07765,0.36238 0.25885,0.64711q0.18766,0.27826 0.4918,0.45298q0.30414,0.16824 0.76359,0.16824l0.00001,0z"/>
     <path fill="#ffffff" stroke-width="0.26963" id="path1434" d="m84.17241,39.55747l0,-4.59448l1.88956,0q0.2912,0 0.5371,0.12295q0.24591,0.12295 0.42063,0.33002q0.18119,0.20061 0.27825,0.45945q0.10354,0.25238 0.10354,0.51122q0,0.27826 -0.09707,0.5371q-0.0906,0.25885 -0.26531,0.45945q-0.16825,0.2006 -0.40768,0.32355q-0.23943,0.11648 -0.53063,0.11648l-1.59837,0l0,1.73426l-0.33002,0zm0.33003,-2.0384l1.58542,0q0.22649,0 0.40768,-0.0906q0.18119,-0.0971 0.30414,-0.25238q0.12942,-0.16177 0.19413,-0.36238q0.07118,-0.20707 0.07118,-0.42709q0,-0.22649 -0.08413,-0.42709q-0.07765,-0.20708 -0.22001,-0.36238q-0.1359,-0.15531 -0.32356,-0.24591q-0.18119,-0.0906 -0.38827,-0.0906l-1.54659,0l0.00001,2.25843z"/>
    </g>
    <path fill="#00a0a0" stroke-width="0.0402" d="m87.43019,25.12805c-0.28192,0.0712 -0.57095,0.0646 -0.84055,-0.009c-0.46211,-0.12593 -0.86652,-0.44905 -1.07816,-0.91931l-1.62726,-3.52255c0.04687,0.0114 2.55266,-0.29037 3.03273,-1.38184l1.60795,3.53432c0.37624,0.83599 0.0044,1.82124 -0.816,2.20128c-0.09143,0.0412 -0.18471,0.0735 -0.27871,0.0971zm-0.17675,-0.79036a0.94878,0.94878 0 0 0 0.67612,-0.69264a0.94878,0.94878 0 0 0 -0.69798,-1.14562a0.94878,0.94878 0 0 0 -1.14604,0.69772a0.94878,0.94878 0 0 0 0.69848,1.14621a0.94878,0.94878 0 0 0 0.46942,-0.005l0,-0.00067z" id="path1084"/>
    <path fill="#ffffff" stroke-width="0.0402" d="m84.6173,20.80013c-1.36688,0 -2.49258,-1.1257 -2.49258,-2.49259l0,-1.8171l4.98516,0l0,1.8171c0,1.36689 -1.12569,2.49259 -2.49258,2.49259zm0,-1.9136a0.54675,0.54675 0 0 0 0.5467,-0.5467a0.54675,0.54675 0 0 0 -0.5467,-0.5467a0.54675,0.54675 0 0 0 -0.54669,0.5467a0.54675,0.54675 0 0 0 0.54669,0.5467z" id="path1064"/>
    <path fill="#00a0a0" stroke-width="0.0402" d="m80.33205,23.32024l-3.10299,-1.85984c0.15256,-0.0533 0.27838,-0.14985 0.38077,-0.27384l2.68036,1.60358c-0.02277,0.15816 -0.0152,0.32396 0.02963,0.49438c0.0034,0.0123 0.0084,0.0238 0.01223,0.0357l0,0.00002zm0.26272,-1.17794l-2.81431,-1.34446c0.03232,-0.14018 0.04519,-0.29211 0.03489,-0.47161l3.19696,1.52776c-0.1609,0.0658 -0.30286,0.16455 -0.41755,0.28832l0.00001,-0.00001z" id="path6"/>
    <path fill="#ffffff" stroke-width="0.0402" d="m81.17543,21.60419c-0.31382,-0.006 -0.61565,0.10887 -0.83505,0.33128c-0.19397,0.16982 -0.31631,0.40645 -0.36409,0.68691c-0.04723,0.32067 0.04139,0.63284 0.22189,0.87693c0.02258,0.0305 0.04677,0.0599 0.07219,0.0881c0.04447,0.0493 0.09275,0.0955 0.14501,0.13689c0.15655,0.12461 0.34617,0.21117 0.5566,0.2422l4.83842,0.6816c-0.12022,-0.12902 -0.22271,-0.27877 -0.29908,-0.44846l-0.98068,-2.12295l-3.2202,-0.46252c-0.04511,-0.006 -0.09018,-0.009 -0.13501,-0.01l0,0.00002zm0.02844,0.48128a0.6754,0.6754 0 0 1 0.53503,0.24283a0.6754,0.6754 0 0 1 -0.08657,0.951a0.6754,0.6754 0 0 1 -0.85505,0.008a0.6754,0.6754 0 0 1 -0.05032,-0.0447a0.6754,0.6754 0 0 1 -0.04594,-0.05a0.6754,0.6754 0 0 1 0.08688,-0.95131a0.6754,0.6754 0 0 1 0.41596,-0.15595l0.00001,0.00013z" id="path1079"/>
    <path fill="#00a0a0" stroke-width="0.0402" d="m76.12811,23.23179c0,0.40203 0.04824,0.85229 0.14473,1.22215l0.38594,0l0,-0.85229c-0.14473,-0.0643 -0.24122,-0.19297 -0.24122,-0.35378c0,-0.20905 0.1769,-0.38594 0.38595,-0.38594c0.20905,0 0.38594,0.17689 0.38594,0.38594c0,0.16081 -0.09649,0.30554 -0.24121,0.35378l0,0.85229l0.38594,0c0.09648,-0.38594 0.14473,-0.82012 0.14473,-1.22215c0,-0.27338 -0.01608,-0.48243 -0.06432,-0.65932l-1.20607,0c-0.04824,0.17689 -0.08041,0.40202 -0.08041,0.65932z" id="path24"/>
    <path fill="#ffffff" stroke-width="0.0402" id="path26" d="m76.80351,19.40436c-0.595,0 -1.09339,0.35394 -1.09339,1.59218c0,0.51459 0.0802,1.09344 0.22492,1.57587l1.73693,0c0.14473,-0.48243 0.22493,-1.06128 0.22493,-1.57587c0,-1.23824 -0.48231,-1.59218 -1.09339,-1.59218zm0,0.85249a0.36986,0.36986 0 0 1 0.37002,0.36968a0.36986,0.36986 0 0 1 -0.37002,0.37001a0.36986,0.36986 0 0 1 -0.37002,-0.37001a0.36986,0.36986 0 0 1 0.37002,-0.36968z"/>
   </g>
   <g transform="matrix(-0.0598523, 0, 0, 0.0598523, 107.774, 110.136)" id="g30"/>
   <g transform="matrix(-0.0598523, 0, 0, 0.0598523, 107.774, 110.136)" id="g32"/>
   <g transform="matrix(-0.0598523, 0, 0, 0.0598523, 107.774, 110.136)" id="g34"/>
   <g transform="matrix(-0.0598523, 0, 0, 0.0598523, 107.774, 110.136)" id="g36"/>
   <g transform="matrix(-0.0598523, 0, 0, 0.0598523, 107.774, 110.136)" id="g38"/>
   <g transform="matrix(-0.0598523, 0, 0, 0.0598523, 107.774, 110.136)" id="g40"/>
   <g transform="matrix(-0.0598523, 0, 0, 0.0598523, 107.774, 110.136)" id="g42"/>
   <g transform="matrix(-0.0598523, 0, 0, 0.0598523, 107.774, 110.136)" id="g44"/>
   <g transform="matrix(-0.0598523, 0, 0, 0.0598523, 107.774, 110.136)" id="g46"/>
   <g transform="matrix(-0.0598523, 0, 0, 0.0598523, 107.774, 110.136)" id="g48"/>
   <g transform="matrix(-0.0598523, 0, 0, 0.0598523, 107.774, 110.136)" id="g50"/>
   <g transform="matrix(-0.0598523, 0, 0, 0.0598523, 107.774, 110.136)" id="g52"/>
   <g transform="matrix(-0.0598523, 0, 0, 0.0598523, 107.774, 110.136)" id="g54"/>
   <g transform="matrix(-0.0598523, 0, 0, 0.0598523, 107.774, 110.136)" id="g56"/>
   <g transform="matrix(-0.0598523, 0, 0, 0.0598523, 107.774, 110.136)" id="g58"/>
   <g id="g1374" transform="matrix(1.12256, 0, 0, 1.12256, 6.13288, -57.2359)">
    <rect fill="#282828" stroke-width="0.33116" y="16.43529" x="-6.18311" height="25.45515" width="97.10667" id="rect1332"/>
    <path fill="#ffffff" stroke-width="0.16001px" id="path1334" d="m-2.26013,18.78459l-0.00018,9.60059l1.66347,0l0,-4.00024l4.18911,0l0,4.00024l1.66297,0l0,-9.60059l-1.66309,0l0.00012,4.00025l-4.18911,0l-0.00025,-4.00025l-1.66304,0z"/>
    <path fill="#ffffff" stroke-width="0.16px" d="m9.74593,28.38518l1.66297,0l0,-9.59999l-1.66309,0l0.00012,9.59999z" id="path1336"/>
    <path fill="#ffffff" stroke-width="0.07574" id="path1338" d="m10.57735,29.92007a4.8381,4.8381 0 0 0 -4.83811,4.83811a4.8381,4.8381 0 0 0 4.83811,4.83811a4.8381,4.8381 0 0 0 4.83812,-4.83811a4.8381,4.8381 0 0 0 -4.83812,-4.83811zm0,1.66323a3.175,3.175 0 0 1 3.17489,3.17488a3.175,3.175 0 0 1 -3.17489,3.17489a3.175,3.175 0 0 1 -3.17488,-3.17489a3.175,3.175 0 0 1 3.17488,-3.17488z"/>
    <path fill="#ffffff" stroke-width="0.16001px" id="path1340" d="m1.60982,29.95768l-2.32827,0.00032l-1.66291,0l-0.00032,0l0,1.66292l0.00032,0l0,2.72141l-0.00032,0l0,1.66292l0.00032,0l0,3.55335l1.66291,0l0,-3.55335l0.84849,0l2.95518,3.55335l2.2914,0l-3.03332,-3.64742a3.02381,3.02381 0 0 0 2.29015,-2.92955a3.02381,3.02381 0 0 0 -3.02363,-3.02394l0,-0.00001zm-2.32827,1.66323l2.32827,0a1.36071,1.36071 0 0 1 1.36071,1.36071a1.36071,1.36071 0 0 1 -1.36071,1.36071l0,-0.00032l-2.32827,0.00032l0,-2.72142z"/>
    <text font-style="normal" font-weight="600" font-size="6.4711px" font-family="Raleway" fill="#ffffff" stroke-width="0.26963" id="text1360" y="23.37971" x="18.90392" xml:space="preserve">
     <tspan font-style="normal" font-weight="600" font-family="Raleway" fill="#ffffff" stroke-width="0.26963" y="23.37971" x="18.90392" id="tspan1346">
      <tspan fill="#00a0a0" stroke-width="0.26963" id="tspan1342">H</tspan>
      <tspan font-style="normal" font-weight="300" font-family="Raleway" stroke-width="0.26963" id="tspan1344">UMAN</tspan>
     </tspan>
     <tspan font-style="normal" font-weight="600" font-family="Raleway" fill="#ffffff" stroke-width="0.26963" id="tspan1354" y="31.4686" x="18.90392">
      <tspan fill="#00a0a0" stroke-width="0.26963" id="tspan1348">I</tspan>
      <tspan font-style="normal" font-weight="300" font-family="Raleway" stroke-width="0.26963" id="tspan1352">NTERACTION
       <tspan fill="#00a0a0" stroke-width="0.26963" id="tspan1350">&amp;</tspan></tspan>
     </tspan>
     <tspan font-style="normal" font-weight="300" font-family="Raleway" fill="#ffffff" stroke-width="0.26963" id="tspan1358" y="39.55746" x="18.90392">
      <tspan font-style="normal" font-weight="600" font-family="Raleway" fill="#00a0a0" stroke-width="0.26963" id="tspan1356">RO</tspan>BOTICS GROUP</tspan>
    </text>
    <path fill="#00a0a0" stroke-width="0.0402" id="path1362" d="m87.43019,25.12805c-0.28192,0.0712 -0.57095,0.0646 -0.84055,-0.009c-0.46211,-0.12593 -0.86652,-0.44905 -1.07816,-0.91931l-1.62726,-3.52255c0.04687,0.0114 2.55266,-0.29037 3.03273,-1.38184l1.60795,3.53432c0.37624,0.83599 0.0044,1.82124 -0.816,2.20128c-0.09143,0.0412 -0.18471,0.0735 -0.27871,0.0971zm-0.17675,-0.79036a0.94878,0.94878 0 0 0 0.67612,-0.69264a0.94878,0.94878 0 0 0 -0.69798,-1.14562a0.94878,0.94878 0 0 0 -1.14604,0.69772a0.94878,0.94878 0 0 0 0.69848,1.14621a0.94878,0.94878 0 0 0 0.46942,-0.005l0,-0.00067z"/>
    <path fill="#ffffff" stroke-width="0.0402" id="path1364" d="m84.6173,20.80013c-1.36688,0 -2.49258,-1.1257 -2.49258,-2.49259l0,-1.8171l4.98516,0l0,1.8171c0,1.36689 -1.12569,2.49259 -2.49258,2.49259zm0,-1.9136a0.54675,0.54675 0 0 0 0.5467,-0.5467a0.54675,0.54675 0 0 0 -0.5467,-0.5467a0.54675,0.54675 0 0 0 -0.54669,0.5467a0.54675,0.54675 0 0 0 0.54669,0.5467z"/>
    <path fill="#00a0a0" stroke-width="0.0402" id="path1366" d="m80.33205,23.32024l-3.10299,-1.85984c0.15256,-0.0533 0.27838,-0.14985 0.38077,-0.27384l2.68036,1.60358c-0.02277,0.15816 -0.0152,0.32396 0.02963,0.49438c0.0034,0.0123 0.0084,0.0238 0.01223,0.0357l0,0.00002zm0.26272,-1.17794l-2.81431,-1.34446c0.03232,-0.14018 0.04519,-0.29211 0.03489,-0.47161l3.19696,1.52776c-0.1609,0.0658 -0.30286,0.16455 -0.41755,0.28832l0.00001,-0.00001z"/>
    <path fill="#ffffff" stroke-width="0.0402" id="path1368" d="m81.17543,21.60419c-0.31382,-0.006 -0.61565,0.10887 -0.83505,0.33128c-0.19397,0.16982 -0.31631,0.40645 -0.36409,0.68691c-0.04723,0.32067 0.04139,0.63284 0.22189,0.87693c0.02258,0.0305 0.04677,0.0599 0.07219,0.0881c0.04447,0.0493 0.09275,0.0955 0.14501,0.13689c0.15655,0.12461 0.34617,0.21117 0.5566,0.2422l4.83842,0.6816c-0.12022,-0.12902 -0.22271,-0.27877 -0.29908,-0.44846l-0.98068,-2.12295l-3.2202,-0.46252c-0.04511,-0.006 -0.09018,-0.009 -0.13501,-0.01l0,0.00002zm0.02844,0.48128a0.6754,0.6754 0 0 1 0.53503,0.24283a0.6754,0.6754 0 0 1 -0.08657,0.951a0.6754,0.6754 0 0 1 -0.85505,0.008a0.6754,0.6754 0 0 1 -0.05032,-0.0447a0.6754,0.6754 0 0 1 -0.04594,-0.05a0.6754,0.6754 0 0 1 0.08688,-0.95131a0.6754,0.6754 0 0 1 0.41596,-0.15595l0.00001,0.00013z"/>
    <path fill="#00a0a0" stroke-width="0.0402" id="path1370" d="m76.12811,23.23179c0,0.40203 0.04824,0.85229 0.14473,1.22215l0.38594,0l0,-0.85229c-0.14473,-0.0643 -0.24122,-0.19297 -0.24122,-0.35378c0,-0.20905 0.1769,-0.38594 0.38595,-0.38594c0.20905,0 0.38594,0.17689 0.38594,0.38594c0,0.16081 -0.09649,0.30554 -0.24121,0.35378l0,0.85229l0.38594,0c0.09648,-0.38594 0.14473,-0.82012 0.14473,-1.22215c0,-0.27338 -0.01608,-0.48243 -0.06432,-0.65932l-1.20607,0c-0.04824,0.17689 -0.08041,0.40202 -0.08041,0.65932z"/>
    <path fill="#ffffff" stroke-width="0.0402" d="m76.80351,19.40436c-0.595,0 -1.09339,0.35394 -1.09339,1.59218c0,0.51459 0.0802,1.09344 0.22492,1.57587l1.73693,0c0.14473,-0.48243 0.22493,-1.06128 0.22493,-1.57587c0,-1.23824 -0.48231,-1.59218 -1.09339,-1.59218zm0,0.85249a0.36986,0.36986 0 0 1 0.37002,0.36968a0.36986,0.36986 0 0 1 -0.37002,0.37001a0.36986,0.36986 0 0 1 -0.37002,-0.37001a0.36986,0.36986 0 0 1 0.37002,-0.36968z" id="path1372"/>
   </g>
  </g>
 </g>
</svg>